<svg width="60" height="60" viewBox="0 0 60 60" fill="none" xmlns="http://www.w3.org/2000/svg">
<path d="M0 20C0 8.9543 8.95431 0 20 0H40C51.0457 0 60 8.95431 60 20V40C60 51.0457 51.0457 60 40 60H20C8.9543 60 0 51.0457 0 40V20Z" fill="url(#paint0_radial_235_746)"/>
<path d="M42.1281 22.0797H31.563L39.0472 16.3223C39.3562 16.086 39.4107 15.6453 39.1744 15.3408C38.9381 15.0318 38.4974 14.9773 38.1884 15.2136L29.4955 21.9025L20.8071 15.209C20.4981 14.9727 20.0619 15.0273 19.821 15.3363C19.5847 15.6453 19.6438 16.0815 19.9483 16.3178L27.437 22.0797H16.8719C15.3223 22.0797 14.0636 23.3385 14.0636 24.888V43.1281C14.0636 44.6777 15.3223 45.9364 16.8719 45.9364H42.1281C43.6777 45.9364 44.9364 44.6777 44.9364 43.1281V24.888C44.9364 23.3385 43.6777 22.0797 42.1281 22.0797ZM37.4295 40.8833C37.2659 41.7785 36.5797 42.4419 35.6846 42.5828C34.3486 42.7873 31.4994 43.1281 27.3961 43.1281C23.2927 43.1281 20.439 42.7873 19.1076 42.5828C18.2124 42.4465 17.5308 41.7785 17.3626 40.8879C17.14 39.6791 16.8719 37.5025 16.8719 34.0081C16.8719 30.5136 17.14 28.3415 17.3626 27.1328C17.5262 26.2376 18.2124 25.5742 19.1076 25.4333C20.4436 25.2288 23.2927 24.888 27.3961 24.888C31.4994 24.888 34.3531 25.2288 35.6846 25.4333C36.5797 25.5696 37.2614 26.2376 37.4295 27.1283C37.6522 28.337 37.9203 30.5136 37.9203 34.0081C37.9203 37.5025 37.6522 39.6746 37.4295 40.8833ZM40.724 41.724C39.9515 41.724 39.3198 41.0923 39.3198 40.3198C39.3198 39.5473 39.9515 38.9157 40.724 38.9157C41.4965 38.9157 42.1281 39.5473 42.1281 40.3198C42.1281 41.0923 41.4965 41.724 40.724 41.724ZM40.724 37.5161C39.9515 37.5161 39.3198 36.8845 39.3198 36.112C39.3198 35.3395 39.9515 34.7079 40.724 34.7079C41.4965 34.7079 42.1281 35.3395 42.1281 36.112C42.1281 36.8845 41.4965 37.5161 40.724 37.5161ZM40.724 33.3083C39.9515 33.3083 39.3198 32.6766 39.3198 31.9041C39.3198 31.1316 39.9515 30.5 40.724 30.5C41.4965 30.5 42.1281 31.1316 42.1281 31.9041C42.1281 32.6766 41.4965 33.3083 40.724 33.3083Z" fill="white"/>
<defs>
<radialGradient id="paint0_radial_235_746" cx="0" cy="0" r="1" gradientUnits="userSpaceOnUse" gradientTransform="translate(3 56.5) rotate(-40.3937) scale(74.8415)">
<stop stop-color="#FF8B48"/>
<stop offset="0.41" stop-color="#FF4ACC"/>
<stop offset="0.55" stop-color="#FE4CC9"/>
<stop offset="0.65" stop-color="#FE55C2"/>
<stop offset="0.73" stop-color="#FD64B5"/>
<stop offset="0.81" stop-color="#FC7AA3"/>
<stop offset="0.88" stop-color="#FA958C"/>
<stop offset="0.95" stop-color="#F8B770"/>
<stop offset="1" stop-color="#F7D657"/>
</radialGradient>
</defs>
</svg>
