<svg width="31" height="30" viewBox="0 0 31 30" fill="none" xmlns="http://www.w3.org/2000/svg">
<g clip-path="url(#clip0_152_370)">
<path d="M12.6787 12.5311C13.0228 12.5311 13.3233 12.7878 13.3451 13.132C13.367 13.5089 13.072 13.8203 12.7005 13.8203H10.013C9.73437 13.8203 9.52679 14.0715 9.58142 14.3447C10.1167 17.1251 12.564 19.2227 15.4974 19.2227C18.4362 19.2227 20.8834 17.1251 21.4188 14.3447C21.4734 14.0715 21.2658 13.8203 20.9872 13.8203H18.2123C17.8408 13.8203 17.5458 13.5089 17.5677 13.132C17.5895 12.7878 17.89 12.5256 18.2396 12.5256H21.0856C21.3314 12.5256 21.528 12.329 21.528 12.0832V11.5369C21.528 11.2911 21.3314 11.0945 21.0856 11.0945H18.2341C17.89 11.0945 17.5895 10.8377 17.5677 10.4936C17.5458 10.1167 17.8408 9.80529 18.2123 9.80529H21.0856C21.3314 9.80529 21.528 9.60864 21.528 9.36282V8.8111C21.528 8.56529 21.3314 8.36864 21.0856 8.36864H18.2341C17.89 8.36864 17.5895 8.1119 17.5677 7.76776C17.5458 7.39084 17.8408 7.07947 18.2123 7.07947H21.0856C21.3314 7.07947 21.528 6.88282 21.528 6.63701V6.08529C21.528 5.83947 21.3314 5.64282 21.0856 5.64282H18.2341C17.89 5.64282 17.5895 5.38608 17.5677 5.04194C17.5458 4.66502 17.8408 4.35366 18.2123 4.35366H20.6486C20.9654 4.35366 21.1784 4.03137 21.0528 3.73639C20.1351 1.59507 17.9938 0.0764771 15.4974 0.0764771C13.001 0.0764771 10.8542 1.59507 9.94195 3.7637C9.82177 4.05322 10.0348 4.37005 10.3516 4.37005H12.6787C13.0228 4.37005 13.3233 4.62679 13.3451 4.97093C13.367 5.34784 13.072 5.65921 12.7005 5.65921H9.91463C9.66882 5.65921 9.47217 5.85586 9.47217 6.10168V6.65339C9.47217 6.89921 9.66882 7.09586 9.91463 7.09586H12.6787C13.0228 7.09586 13.3233 7.3526 13.3451 7.69674C13.367 8.07366 13.072 8.38502 12.7005 8.38502H9.91463C9.66882 8.38502 9.47217 8.58168 9.47217 8.82749V9.37921C9.47217 9.62502 9.66882 9.82168 9.91463 9.82168H12.6787C13.0228 9.82168 13.3233 10.0784 13.3451 10.4226C13.367 10.7995 13.072 11.1108 12.7005 11.1108H9.91463C9.66882 11.1108 9.47217 11.3075 9.47217 11.5533V12.542C9.47217 12.542 9.47763 12.542 9.48309 12.542H12.6787V12.5311Z" fill="white"/>
<path d="M23.7294 10.6957C23.194 10.6957 22.7625 11.1272 22.7625 11.6626V13.7001C22.7625 17.4365 19.7253 20.4737 15.9889 20.4737H15.0057C11.2693 20.4737 8.23208 17.4365 8.23208 13.7001V11.6626C8.23208 11.1272 7.80054 10.6957 7.26521 10.6957C6.72988 10.6957 6.29834 11.1272 6.29834 11.6626V13.7001C6.29834 18.1302 9.62504 21.8011 13.9131 22.3364V26.3732H11.9685C10.7503 26.3732 9.75614 27.3674 9.75614 28.5855V29.2574C9.75614 29.5087 9.95825 29.7108 10.2095 29.7108H20.785C21.0363 29.7108 21.2384 29.5087 21.2384 29.2574V28.5855C21.2384 27.3674 20.2442 26.3732 19.0261 26.3732H17.0814V22.3364C21.3695 21.8011 24.6962 18.1302 24.6962 13.7001V11.6626C24.6962 11.1272 24.2647 10.6957 23.7294 10.6957Z" fill="white"/>
<path d="M23.713 9.65234C23.1832 9.65234 22.7571 9.22626 22.7571 8.69639V4.7852C22.7571 4.25533 23.1832 3.82925 23.713 3.82925C24.2429 3.82925 24.669 4.25533 24.669 4.7852V8.69639C24.669 9.22626 24.2429 9.65234 23.713 9.65234Z" fill="white"/>
<path d="M29.9623 9.65234C29.4324 9.65234 29.0063 9.22626 29.0063 8.69639V4.7852C29.0063 4.25533 29.4324 3.82925 29.9623 3.82925C30.4922 3.82925 30.9182 4.25533 30.9182 4.7852V8.69639C30.9182 9.22626 30.4922 9.65234 29.9623 9.65234Z" fill="white"/>
<path d="M26.8375 11.7882C26.3077 11.7882 25.8816 11.3621 25.8816 10.8322V2.64934C25.8816 2.11947 26.3077 1.69339 26.8375 1.69339C27.3674 1.69339 27.7935 2.11947 27.7935 2.64934V10.8322C27.7935 11.3621 27.3674 11.7882 26.8375 11.7882Z" fill="white"/>
<path d="M1.03798 9.65234C0.508111 9.65234 0.0820312 9.22626 0.0820312 8.69639V4.7852C0.0820312 4.25533 0.508111 3.82925 1.03798 3.82925C1.56785 3.82925 1.99393 4.25533 1.99393 4.7852V8.69639C1.99393 9.22626 1.56785 9.65234 1.03798 9.65234Z" fill="white"/>
<path d="M7.28725 9.65234C6.75738 9.65234 6.3313 9.22626 6.3313 8.69639V4.7852C6.3313 4.25533 6.75738 3.82925 7.28725 3.82925C7.81711 3.82925 8.24319 4.25533 8.24319 4.7852V8.69639C8.24319 9.22626 7.81711 9.65234 7.28725 9.65234Z" fill="white"/>
<path d="M4.16249 11.7882C3.63262 11.7882 3.20654 11.3621 3.20654 10.8322V2.64934C3.20654 2.11947 3.63262 1.69339 4.16249 1.69339C4.69236 1.69339 5.11844 2.11947 5.11844 2.64934V10.8322C5.11844 11.3621 4.69236 11.7882 4.16249 11.7882Z" fill="white"/>
</g>
<defs>
<clipPath id="clip0_152_370">
<rect width="31" height="29.7873" fill="white"/>
</clipPath>
</defs>
</svg>
