<svg width="60" height="60" viewBox="0 0 60 60" fill="none" xmlns="http://www.w3.org/2000/svg">
<path d="M0 20C0 8.9543 8.95431 0 20 0H40C51.0457 0 60 8.95431 60 20V40C60 51.0457 51.0457 60 40 60H20C8.9543 60 0 51.0457 0 40V20Z" fill="url(#paint0_radial_235_773)"/>
<path d="M45.8823 41.376C45.4549 38.2048 44.7303 33.6523 43.7145 29.9608C42.965 27.2356 40.4565 25.3279 37.626 25.3279C36.7341 25.3279 35.8607 25.5137 35.037 25.8853L33.9407 26.3808C33.377 26.6348 32.7824 26.7586 32.1692 26.7586H31.3578C31.4941 25.7305 31.5065 23.7856 30.0757 22.0204C29.605 21.4382 29.4192 20.8559 29.5121 20.2304C29.7289 18.6881 31.5189 17.4308 31.5313 17.4184C31.8657 17.1892 31.9463 16.7371 31.7171 16.4026C31.4879 16.0681 31.0358 15.9876 30.7013 16.2168C30.6084 16.2849 28.3786 17.8396 28.0627 20.0198C27.9141 21.0541 28.2052 22.039 28.9361 22.9433C30.1377 24.4298 30.0014 26.0959 29.8775 26.7648H28.8617C28.2424 26.7648 27.6416 26.6348 27.0779 26.3808L26.0002 25.8915C25.1702 25.5137 24.2907 25.3279 23.3926 25.3279C20.5558 25.3279 18.0535 27.2294 17.3041 29.9608C16.2697 33.6462 15.5451 38.2048 15.1177 41.376C15.0248 42.0821 15.223 42.7634 15.6875 43.2899C16.1582 43.8226 16.8272 44.1323 17.5333 44.1323C18.035 44.1323 18.5181 43.9774 18.9331 43.6739C21.4725 41.8653 23.3431 40.224 24.5013 38.8056C24.9349 38.2729 25.5728 37.9694 26.2541 37.9694C26.3594 37.9694 26.4585 37.9756 26.5638 37.9942C29.1281 38.3534 31.8657 38.3473 34.4362 37.988C34.5415 37.9756 34.6406 37.9632 34.7459 37.9632C35.421 37.9632 36.0589 38.2667 36.4925 38.7994C37.6507 40.224 39.5213 41.8653 42.0669 43.6801C42.2775 43.8288 42.5005 43.9403 42.7359 44.0208C42.9712 44.1013 43.219 44.1385 43.4667 44.1385C44.1728 44.1385 44.8418 43.8288 45.3125 43.2961C45.7708 42.7696 45.9752 42.0883 45.8823 41.3822V41.376ZM36.6102 35.015C36.2448 35.015 35.9536 34.7177 35.9536 34.3584V33.8258C35.9536 33.4603 36.251 33.1692 36.6102 33.1692C36.9694 33.1692 37.2667 33.4665 37.2667 33.8258V34.3584C37.2667 34.7239 36.9694 35.015 36.6102 35.015ZM37.2667 31.0757C37.2667 31.4412 36.9694 31.7323 36.6102 31.7323C36.251 31.7323 35.9536 31.435 35.9536 31.0757V30.5431C35.9536 30.1776 36.251 29.8865 36.6102 29.8865C36.9694 29.8865 37.2667 30.1838 37.2667 30.5431V31.0757ZM34.0398 32.4507C34.0398 32.0853 34.3371 31.7942 34.6963 31.7942H35.229C35.5944 31.7942 35.8855 32.0915 35.8855 32.4507C35.8855 32.81 35.5944 33.1073 35.229 33.1073H34.6963C34.3309 33.1073 34.0398 32.81 34.0398 32.4507ZM37.979 31.7942H38.5117C38.8771 31.7942 39.1682 32.0915 39.1682 32.4507C39.1682 32.81 38.8709 33.1073 38.5117 33.1073H37.979C37.6136 33.1073 37.3225 32.81 37.3225 32.4507C37.3225 32.0915 37.6198 31.7942 37.979 31.7942ZM21.9309 33.1073C21.5654 33.1073 21.2743 32.81 21.2743 32.4507C21.2743 32.0915 21.5716 31.7942 21.9309 31.7942H23.0458V30.6793C23.0458 30.3139 23.3431 30.0228 23.7023 30.0228C24.0615 30.0228 24.3588 30.3201 24.3588 30.6793V31.7942H25.4737C25.8392 31.7942 26.1303 32.0915 26.1303 32.4507C26.1303 32.81 25.8392 33.1073 25.4737 33.1073H24.3588V34.2222C24.3588 34.5876 24.0615 34.8787 23.7023 34.8787C23.3431 34.8787 23.0458 34.5814 23.0458 34.2222V33.1073H21.9309Z" fill="white"/>
<defs>
<radialGradient id="paint0_radial_235_773" cx="0" cy="0" r="1" gradientUnits="userSpaceOnUse" gradientTransform="translate(-5.5 69.5) rotate(-38.9515) scale(107.371)">
<stop offset="0.01" stop-color="#121523"/>
<stop offset="0.07" stop-color="#171A2B"/>
<stop offset="0.23" stop-color="#21253A"/>
<stop offset="0.4" stop-color="#282B44"/>
<stop offset="0.65" stop-color="#2A2E47"/>
<stop offset="1" stop-color="#4B4C79"/>
</radialGradient>
</defs>
</svg>
