<svg width="39" height="20" viewBox="0 0 39 20" fill="none" xmlns="http://www.w3.org/2000/svg">
<g clip-path="url(#clip0_152_374)">
<path d="M9.26456 0.650033C9.17264 0.52528 9.04788 0.42679 8.91 0.3283C8.76555 0.249508 8.61453 0.157584 8.44381 0.124754C8.27966 0.0656604 8.10238 0.0656604 7.9251 0.0525284C7.74782 0.0722263 7.5771 0.0787923 7.41295 0.144452C7.2488 0.183848 7.09122 0.282338 6.95333 0.367696C6.82201 0.472752 6.69726 0.571241 6.6119 0.702561C6.51341 0.820749 6.46089 0.952069 6.41492 1.07682C6.3624 1.18844 6.3624 1.32633 6.35583 1.42482C6.3427 1.52988 6.36896 1.6021 6.38866 1.66776C6.42149 1.79252 6.45432 1.87131 6.45432 1.87131C6.45432 1.87131 6.51341 1.81878 6.59877 1.71372C6.63817 1.6612 6.69069 1.59554 6.74979 1.55614C6.81545 1.51018 6.86141 1.46422 6.9402 1.42482C7.01243 1.37886 7.07809 1.33946 7.16345 1.30663C7.23567 1.26724 7.3276 1.2541 7.40639 1.22127C7.49831 1.20814 7.5771 1.18188 7.66903 1.17531C7.75439 1.15561 7.85287 1.16218 7.93823 1.14905C8.03016 1.15561 8.12208 1.14905 8.214 1.16218C8.30593 1.16218 8.38472 1.19501 8.47664 1.20158C8.55544 1.23441 8.64736 1.24097 8.71959 1.28037C8.80494 1.30663 8.87717 1.34603 8.9494 1.39199C9.02819 1.42482 9.08728 1.48391 9.15294 1.52988C9.2186 1.57584 9.27113 1.62837 9.31052 1.67433C9.39588 1.76625 9.46154 1.82535 9.46154 1.82535C9.46154 1.82535 9.49437 1.75312 9.52064 1.61523C9.53377 1.54301 9.55347 1.45765 9.53377 1.35916C9.52064 1.26067 9.52064 1.13592 9.46811 1.02429C9.42215 0.899541 9.35649 0.774787 9.258 0.656599L9.26456 0.650033Z" fill="white"/>
<path d="M37.8726 8.11556C37.5115 8.48326 37.216 8.65397 36.6842 8.66054C36.4215 8.66054 36.1458 8.54892 35.8766 8.47012C35.8569 8.29284 35.8306 8.12213 35.7912 7.95141C36.172 7.92515 36.5923 7.78726 36.8418 7.67564C37.367 7.4524 37.7807 6.93368 37.8595 6.36901C37.8858 6.18516 37.6559 5.73211 37.4918 6.05384C37.2423 6.53972 36.9993 6.8155 36.4675 6.99934C36.1917 7.09783 35.8372 7.05187 35.5286 7.09127C35.4563 6.90085 35.371 6.71044 35.2725 6.52659C35.6074 6.39527 35.9422 6.17859 36.1326 6.04727C36.612 5.70584 36.9796 5.04924 36.914 4.45831C36.8877 4.24163 36.6185 3.95929 36.5135 4.30729C36.3559 4.81943 36.2049 5.16087 35.7321 5.45634C35.5154 5.59422 35.2725 5.68615 35.0295 5.75837C34.9508 5.78464 34.8785 5.79777 34.8129 5.81747C33.7951 4.43861 32.1602 3.5325 30.3152 3.5325C27.2292 3.5325 24.7209 6.03414 24.7209 9.12672C24.7209 12.2193 27.2226 14.7209 30.3152 14.7209C33.4077 14.7209 35.7781 12.3375 35.8963 9.35653C36.2114 9.43533 36.5529 9.45502 36.8286 9.44846C37.413 9.43533 37.9317 9.08733 38.1747 8.56861C38.2534 8.40446 38.0959 7.87919 37.8661 8.11556H37.8726ZM26.8352 7.88575C26.8352 6.69074 27.8004 5.72554 28.9954 5.72554C30.1904 5.72554 31.1556 6.69074 31.1556 7.88575C31.1556 9.08076 30.1904 10.046 28.9954 10.046C27.8004 10.046 26.8352 9.08076 26.8352 7.88575ZM30.4334 13.086C29.9803 13.086 29.6126 12.7183 29.6126 12.2653C29.6126 11.8122 29.9803 11.4445 30.4334 11.4445C30.8864 11.4445 31.2541 11.8122 31.2541 12.2653C31.2541 12.7183 30.8864 13.086 30.4334 13.086ZM33.5259 11.3526C32.784 11.3526 32.1865 10.7485 32.1865 10.0131C32.1865 9.27774 32.7905 8.67367 33.5259 8.67367C34.2613 8.67367 34.8654 9.27774 34.8654 10.0131C34.8654 10.7485 34.2613 11.3526 33.5259 11.3526Z" fill="white"/>
<path d="M22.751 16.172C22.7379 16.1326 22.705 16.0932 22.6656 16.0801C22.6 16.0604 22.5277 16.0998 22.508 16.1655C22.508 16.1655 22.4949 16.2049 22.4752 16.2837C22.4555 16.3559 22.4293 16.4806 22.3702 16.5857C22.2782 16.8089 22.0944 17.1372 21.8055 17.4393C21.6676 17.5903 21.4838 17.7347 21.2999 17.8726C21.1029 18.0105 20.8928 18.1353 20.663 18.2403C20.4332 18.3519 20.1837 18.4242 19.9342 18.4898C19.8094 18.5161 19.6781 18.5424 19.5468 18.5555C19.4811 18.5686 19.4155 18.5752 19.3498 18.5752H19.166C19.0215 18.5752 18.8377 18.5752 18.7523 18.5555C18.6472 18.5424 18.5159 18.5227 18.3912 18.4898C18.1417 18.4242 17.8922 18.3519 17.6624 18.2403C17.4325 18.1353 17.2159 18.0105 17.0255 17.8726C16.835 17.7347 16.6578 17.5903 16.5199 17.4393C16.231 17.1372 16.0537 16.8221 15.9552 16.5857C15.9027 16.4675 15.8764 16.369 15.8567 16.2968C15.837 16.2246 15.8173 16.1655 15.8173 16.1655C15.8042 16.1195 15.7648 16.0867 15.7188 16.0735C15.6466 16.0538 15.5744 16.0998 15.5547 16.172C15.5547 16.172 15.5415 16.218 15.5218 16.2968C15.5087 16.3756 15.4693 16.5003 15.4693 16.6579C15.4496 16.9731 15.5087 17.4524 15.7648 17.9449C16.0143 18.4439 16.4542 18.9626 17.0517 19.3303C17.3472 19.5207 17.682 19.6717 18.0366 19.7833C18.2139 19.8359 18.3977 19.8818 18.6079 19.9081C18.8311 19.9475 18.9559 19.9343 19.1266 19.954H19.1791L19.4483 19.9409C19.5468 19.9409 19.6387 19.9278 19.7306 19.9081C19.9211 19.8884 20.1049 19.8359 20.2822 19.7833C20.6367 19.6717 20.9782 19.5207 21.2671 19.3303C21.8646 18.956 22.2979 18.4439 22.5474 17.9449C22.6788 17.7019 22.751 17.4524 22.797 17.2357C22.8429 17.0125 22.8495 16.8221 22.8429 16.6514C22.8429 16.4806 22.8035 16.3821 22.7904 16.3034C22.7707 16.2246 22.7576 16.1852 22.7576 16.1852L22.751 16.172Z" fill="white"/>
<path d="M31.694 0.650033C31.6021 0.52528 31.4773 0.42679 31.3394 0.3283C31.195 0.249508 31.044 0.157584 30.8733 0.124754C30.7091 0.0656604 30.5318 0.0656604 30.3545 0.0525284C30.1773 0.0722263 30.0065 0.0787923 29.8424 0.144452C29.6782 0.183848 29.5207 0.282338 29.3828 0.367696C29.2515 0.472752 29.1267 0.571241 29.0413 0.702561C28.9429 0.820749 28.8903 0.952069 28.8444 1.07682C28.7918 1.18844 28.7918 1.32633 28.7853 1.42482C28.7721 1.52988 28.7984 1.6021 28.8181 1.66776C28.8509 1.79252 28.8838 1.87131 28.8838 1.87131C28.8838 1.87131 28.9429 1.81878 29.0282 1.71372C29.0676 1.6612 29.1201 1.59554 29.1792 1.55614C29.2449 1.51018 29.2909 1.46422 29.3696 1.42482C29.4419 1.37886 29.5075 1.33946 29.5929 1.30663C29.6651 1.26724 29.757 1.2541 29.8358 1.22127C29.9278 1.20814 30.0065 1.18188 30.0985 1.17531C30.1838 1.15561 30.2823 1.16218 30.3677 1.14905C30.4596 1.15561 30.5515 1.14905 30.6434 1.16218C30.7354 1.16218 30.8142 1.19501 30.9061 1.20158C30.9849 1.23441 31.0768 1.24097 31.149 1.28037C31.2344 1.30663 31.3066 1.34603 31.3788 1.39199C31.4576 1.42482 31.5167 1.48391 31.5824 1.52988C31.648 1.57584 31.7006 1.62837 31.74 1.67433C31.8253 1.76625 31.891 1.82535 31.891 1.82535C31.891 1.82535 31.9238 1.75312 31.9501 1.61523C31.9632 1.54301 31.9829 1.45765 31.9632 1.35916C31.9501 1.26067 31.9501 1.13592 31.8976 1.02429C31.8516 0.899541 31.7859 0.774787 31.6874 0.656599L31.694 0.650033Z" fill="white"/>
<path d="M7.96446 14.7209C11.0505 14.7209 13.5587 12.2193 13.5587 9.12672C13.5587 6.03414 11.057 3.5325 7.96446 3.5325C6.11942 3.5325 4.48449 4.43204 3.46676 5.81747C3.42736 5.8109 3.38797 5.79777 3.342 5.78464C3.0925 5.71898 2.85612 5.62049 2.62631 5.5023C2.13386 5.24622 1.93688 4.87853 1.78587 4.37295C1.70707 4.11031 1.4116 4.06435 1.37877 4.38608C1.31311 5.00985 1.63485 5.58766 2.0879 5.99475C2.27175 6.1589 2.64601 6.40184 3.01371 6.53316C2.91522 6.71701 2.83642 6.90085 2.75763 7.09783C2.48186 7.065 2.16013 7.09783 1.91719 7.03217C1.37221 6.89429 1.07017 6.59882 0.820665 6.11294C0.636817 5.75181 0.393876 6.11293 0.433272 6.37557C0.51863 6.96651 0.951985 7.40643 1.4707 7.67564C1.70051 7.79383 2.1273 7.92515 2.50812 7.94485C2.46873 8.11556 2.44246 8.29284 2.42277 8.46356C2.18639 8.52922 1.94345 8.62771 1.72677 8.65397C1.15553 8.7065 0.794401 8.50295 0.413574 8.109C0.177198 7.86605 0.0524444 8.4176 0.12467 8.57518C0.367612 9.08733 0.814099 9.33683 1.35251 9.42876C1.63485 9.48129 2.03537 9.45502 2.38994 9.35653C2.51469 12.3375 4.95724 14.7144 7.97103 14.7144L7.96446 14.7209ZM11.1687 8.6671C11.9106 8.6671 12.5081 9.27117 12.5081 10.0066C12.5081 10.742 11.9041 11.346 11.1687 11.346C10.4333 11.346 9.8292 10.742 9.8292 10.0066C9.8292 9.27117 10.4333 8.6671 11.1687 8.6671ZM8.07608 13.086C7.62303 13.086 7.25533 12.7183 7.25533 12.2653C7.25533 11.8122 7.62303 11.4445 8.07608 11.4445C8.52913 11.4445 8.89683 11.8122 8.89683 12.2653C8.89683 12.7183 8.52913 13.086 8.07608 13.086ZM6.63813 5.72554C7.83314 5.72554 8.79834 6.69074 8.79834 7.88575C8.79834 9.08076 7.83314 10.046 6.63813 10.046C5.44312 10.046 4.47792 9.08076 4.47792 7.88575C4.47792 6.69074 5.44312 5.72554 6.63813 5.72554Z" fill="white"/>
<path d="M2.94813 15.6271C1.45765 15.6271 0.249512 16.5988 0.249512 17.7938C0.249512 18.9888 1.46422 19.954 2.9547 19.954C4.44518 19.954 5.65332 18.9823 5.65332 17.7873C5.65332 16.5923 4.43861 15.6271 2.94813 15.6271Z" fill="white"/>
<path d="M35.8371 15.6664C34.3729 15.4432 32.9546 16.218 32.6789 17.3933C32.4031 18.5686 33.3683 19.698 34.8325 19.9212C36.2967 20.1444 37.715 19.3697 37.9908 18.1944C38.2665 17.019 37.3013 15.8897 35.8371 15.6664Z" fill="white"/>
</g>
<defs>
<clipPath id="clip0_152_374">
<rect width="38.2994" height="20" fill="white"/>
</clipPath>
</defs>
</svg>
