<svg width="60" height="60" viewBox="0 0 60 60" fill="none" xmlns="http://www.w3.org/2000/svg">
<path d="M0 20C0 8.9543 8.95431 0 20 0H40C51.0457 0 60 8.95431 60 20V40C60 51.0457 51.0457 60 40 60H20C8.9543 60 0 51.0457 0 40V20Z" fill="url(#paint0_radial_235_768)"/>
<path d="M43.9054 16.2224C43.9054 15.8977 43.7668 15.5857 43.5209 15.3693C43.2751 15.1528 42.9473 15.0573 42.6321 15.1082L23.7659 17.8968C23.2175 17.9796 22.814 18.4507 22.814 19.011V22.3789C22.814 22.4426 22.8204 22.5063 22.833 22.5699C22.8204 22.6336 22.814 22.6973 22.814 22.7673V36.602C22.3035 36.4046 21.7235 36.2964 21.1058 36.2964C20.57 36.2964 20.0279 36.3791 19.4984 36.5447C18.3953 36.8821 17.4435 37.5442 16.8258 38.3974C16.145 39.3333 15.9244 40.4474 16.2269 41.4406C16.6808 42.9431 18.1747 43.9172 20.0342 43.9172C20.57 43.9172 21.1121 43.8345 21.6416 43.6689C22.7447 43.3315 23.6965 42.6694 24.3143 41.8162C24.8059 41.1414 25.0581 40.371 25.0455 39.6198C25.0455 39.5943 25.0455 39.5752 25.0455 39.5497V23.353L41.674 20.8891V33.8134C41.1634 33.616 40.5835 33.5078 39.9658 33.5078C39.43 33.5078 38.8879 33.5906 38.3584 33.7561C37.2553 34.0935 36.3035 34.7557 35.6857 35.6088C35.005 36.5447 34.7843 37.6588 35.0869 38.652C35.5407 40.1546 37.0347 41.1287 38.8942 41.1287C39.43 41.1287 39.9721 41.0459 40.5016 40.8804C41.6047 40.5429 42.5565 39.8808 43.1742 39.0277C43.6659 38.3528 43.9118 37.5824 43.9054 36.8375C43.9054 36.8121 43.9054 36.793 43.9054 36.7675V19.9787C43.9054 19.915 43.8991 19.8514 43.8865 19.7877C43.8991 19.724 43.9054 19.6604 43.9054 19.5903V16.2224Z" fill="white"/>
<defs>
<radialGradient id="paint0_radial_235_768" cx="0" cy="0" r="1" gradientUnits="userSpaceOnUse" gradientTransform="translate(3 56.5) rotate(-40.3937) scale(74.8415)">
<stop stop-color="#FF8B48"/>
<stop offset="0.41" stop-color="#FF4ACC"/>
<stop offset="0.55" stop-color="#FE4CC9"/>
<stop offset="0.65" stop-color="#FE55C2"/>
<stop offset="0.73" stop-color="#FD64B5"/>
<stop offset="0.81" stop-color="#FC7AA3"/>
<stop offset="0.88" stop-color="#FA958C"/>
<stop offset="0.95" stop-color="#F8B770"/>
<stop offset="1" stop-color="#F7D657"/>
</radialGradient>
</defs>
</svg>
