<svg width="28" height="29" viewBox="0 0 28 29" fill="none" xmlns="http://www.w3.org/2000/svg">
<g clip-path="url(#clip0_152_373)">
<path d="M27.9056 1.22239C27.9056 0.897697 27.7669 0.585732 27.5211 0.369266C27.2752 0.152801 26.9474 0.0573014 26.6323 0.108234L7.76598 2.89682C7.21758 2.97958 6.81416 3.45072 6.81416 4.01098V7.37893C6.81416 7.44259 6.82046 7.50626 6.83307 7.56993C6.82046 7.63359 6.81416 7.69726 6.81416 7.76729V21.602C6.30358 21.4046 5.72366 21.2964 5.10592 21.2964C4.57013 21.2964 4.02803 21.3791 3.49854 21.5447C2.39543 21.8821 1.44361 22.5442 0.825867 23.3974C0.145092 24.3333 -0.0755292 25.4474 0.227037 26.4406C0.680887 27.9431 2.17481 28.9172 4.03433 28.9172C4.57013 28.9172 5.11222 28.8345 5.64172 28.6689C6.74482 28.3315 7.69665 27.6694 8.31439 26.8162C8.80606 26.1414 9.0582 25.371 9.04559 24.6198C9.04559 24.5943 9.04559 24.5752 9.04559 24.5497V8.35302L25.6741 5.88913V18.8134C25.1636 18.616 24.5836 18.5078 23.9659 18.5078C23.4301 18.5078 22.888 18.5906 22.3585 18.7561C21.2554 19.0935 20.3036 19.7557 19.6858 20.6088C19.0051 21.5447 18.7844 22.6588 19.087 23.652C19.5409 25.1546 21.0348 26.1287 22.8943 26.1287C23.4301 26.1287 23.9722 26.0459 24.5017 25.8804C25.6048 25.5429 26.5566 24.8808 27.1744 24.0277C27.666 23.3528 27.9119 22.5824 27.9056 21.8375C27.9056 21.8121 27.9056 21.793 27.9056 21.7675V4.97871C27.9056 4.91504 27.8993 4.85137 27.8867 4.78771C27.8993 4.72404 27.9056 4.66038 27.9056 4.59034V1.22239Z" fill="white"/>
</g>
<defs>
<clipPath id="clip0_152_373">
<rect width="28" height="29" fill="white"/>
</clipPath>
</defs>
</svg>
