<svg width="17" height="18" viewBox="0 0 17 18" fill="none" xmlns="http://www.w3.org/2000/svg">
<path d="M6.27368 0.966644H1.57675C0.705934 0.966644 0 1.67258 0 2.54339V7.24032C0 8.11113 0.705934 8.81707 1.57675 8.81707H6.27368C7.14449 8.81707 7.85042 8.11113 7.85042 7.24032V2.54339C7.85042 1.67258 7.14449 0.966644 6.27368 0.966644Z" fill="white"/>
<path d="M15.3899 0.966644H10.693C9.82214 0.966644 9.11621 1.67258 9.11621 2.54339V7.24032C9.11621 8.11113 9.82214 8.81707 10.693 8.81707H15.3899C16.2607 8.81707 16.9666 8.11113 16.9666 7.24032V2.54339C16.9666 1.67258 16.2607 0.966644 15.3899 0.966644Z" fill="white"/>
<path d="M6.27368 10.0829H1.57675C0.705934 10.0829 0 10.7888 0 11.6596V16.3565C0 17.2274 0.705934 17.9333 1.57675 17.9333H6.27368C7.14449 17.9333 7.85042 17.2274 7.85042 16.3565V11.6596C7.85042 10.7888 7.14449 10.0829 6.27368 10.0829Z" fill="white"/>
<path d="M15.3899 10.0829H10.693C9.82214 10.0829 9.11621 10.7888 9.11621 11.6596V16.3565C9.11621 17.2274 9.82214 17.9333 10.693 17.9333H15.3899C16.2607 17.9333 16.9666 17.2274 16.9666 16.3565V11.6596C16.9666 10.7888 16.2607 10.0829 15.3899 10.0829Z" fill="white"/>
</svg>
