<svg width="48" height="52" viewBox="0 0 48 52" fill="none" xmlns="http://www.w3.org/2000/svg">
<g filter="url(#filter0_d_375_3115)">
<path d="M9.7207 36.5653C9.67525 36.1619 9.48775 35.8494 9.1582 35.6278C8.82866 35.4034 8.41389 35.2912 7.91389 35.2912C7.55593 35.2912 7.24627 35.348 6.98491 35.4616C6.72354 35.5724 6.52042 35.7259 6.37553 35.9219C6.23349 36.1151 6.16246 36.3352 6.16246 36.5824C6.16246 36.7898 6.21076 36.9687 6.30735 37.1193C6.40678 37.2699 6.53604 37.3963 6.69514 37.4986C6.85707 37.598 7.03036 37.6818 7.21502 37.75C7.39968 37.8153 7.57724 37.8693 7.74769 37.9119L8.59996 38.1335C8.87837 38.2017 9.16388 38.294 9.4565 38.4105C9.74911 38.527 10.0204 38.6804 10.2704 38.8707C10.5204 39.0611 10.7221 39.2969 10.8755 39.5781C11.0318 39.8594 11.1099 40.196 11.1099 40.5881C11.1099 41.0824 10.9821 41.5213 10.7264 41.9048C10.4735 42.2884 10.1056 42.5909 9.62269 42.8125C9.14258 43.0341 8.56161 43.1449 7.87979 43.1449C7.22638 43.1449 6.66104 43.0412 6.18377 42.8338C5.7065 42.6264 5.33292 42.3324 5.06303 41.9517C4.79315 41.5682 4.644 41.1136 4.61559 40.5881H5.93661C5.96218 40.9034 6.06445 41.1662 6.24343 41.3764C6.42525 41.5838 6.65678 41.7386 6.93803 41.8409C7.22212 41.9403 7.5332 41.9901 7.87127 41.9901C8.24343 41.9901 8.5744 41.9318 8.86417 41.8153C9.15678 41.696 9.3869 41.5312 9.55451 41.321C9.72212 41.108 9.80593 40.8594 9.80593 40.5753C9.80593 40.3168 9.73207 40.1051 9.58434 39.9403C9.43945 39.7756 9.24201 39.6392 8.99201 39.5312C8.74485 39.4233 8.46502 39.3281 8.15252 39.2457L7.12127 38.9645C6.42241 38.7741 5.86843 38.4943 5.45934 38.125C5.05309 37.7557 4.84996 37.267 4.84996 36.6591C4.84996 36.1562 4.98633 35.7173 5.25906 35.3423C5.53178 34.9673 5.9011 34.6761 6.36701 34.4688C6.83292 34.2585 7.35849 34.1534 7.94371 34.1534C8.53462 34.1534 9.05593 34.2571 9.50764 34.4645C9.96218 34.6719 10.3201 34.9574 10.5815 35.321C10.8429 35.6818 10.9792 36.0966 10.9906 36.5653H9.7207ZM15.4022 43.1321C14.7573 43.1321 14.2019 42.9943 13.736 42.7188C13.2729 42.4403 12.915 42.0497 12.6621 41.5469C12.4121 41.0412 12.2871 40.4489 12.2871 39.7699C12.2871 39.0994 12.4121 38.5085 12.6621 37.9972C12.915 37.4858 13.2672 37.0866 13.7189 36.7997C14.1735 36.5128 14.7047 36.3693 15.3127 36.3693C15.682 36.3693 16.04 36.4304 16.3865 36.5526C16.7331 36.6747 17.0442 36.8665 17.3198 37.1278C17.5953 37.3892 17.8127 37.7287 17.9718 38.1463C18.1309 38.5611 18.2104 39.0653 18.2104 39.6591V40.1108H13.0073V39.1562H16.9618C16.9618 38.821 16.8936 38.5241 16.7573 38.2656C16.6209 38.0043 16.4292 37.7983 16.182 37.6477C15.9377 37.4972 15.6507 37.4219 15.3212 37.4219C14.9632 37.4219 14.6507 37.5099 14.3837 37.6861C14.1195 37.8594 13.915 38.0866 13.7701 38.3679C13.628 38.6463 13.557 38.9489 13.557 39.2756V40.0213C13.557 40.4588 13.6337 40.831 13.7871 41.1378C13.9434 41.4446 14.1607 41.679 14.4391 41.8409C14.7175 42 15.0428 42.0795 15.415 42.0795C15.6564 42.0795 15.8766 42.0455 16.0755 41.9773C16.2743 41.9062 16.4462 41.8011 16.5911 41.6619C16.736 41.5227 16.8468 41.3509 16.9235 41.1463L18.1294 41.3636C18.0328 41.7187 17.8596 42.0298 17.6096 42.2969C17.3624 42.5611 17.0513 42.767 16.6763 42.9148C16.3042 43.0597 15.8794 43.1321 15.4022 43.1321ZM21.5289 43.1449C21.1142 43.1449 20.7392 43.0682 20.4039 42.9148C20.0687 42.7585 19.8031 42.5327 19.6071 42.2372C19.4139 41.9418 19.3173 41.5795 19.3173 41.1506C19.3173 40.7812 19.3883 40.4773 19.5304 40.2386C19.6724 40 19.8642 39.8111 20.1056 39.6719C20.3471 39.5327 20.617 39.4276 20.9153 39.3565C21.2136 39.2855 21.5176 39.2315 21.8272 39.1946C22.2193 39.1491 22.5375 39.1122 22.7818 39.0838C23.0261 39.0526 23.2037 39.0028 23.3145 38.9347C23.4252 38.8665 23.4806 38.7557 23.4806 38.6023V38.5724C23.4806 38.2003 23.3755 37.9119 23.1653 37.7074C22.9579 37.5028 22.6483 37.4006 22.2363 37.4006C21.8074 37.4006 21.4693 37.4957 21.2221 37.6861C20.9778 37.8736 20.8088 38.0824 20.715 38.3125L19.5176 38.0398C19.6596 37.642 19.867 37.321 20.1397 37.0767C20.4153 36.8295 20.7321 36.6506 21.09 36.5398C21.448 36.4261 21.8244 36.3693 22.2193 36.3693C22.4806 36.3693 22.7576 36.4006 23.0502 36.4631C23.3457 36.5227 23.6213 36.6335 23.877 36.7955C24.1355 36.9574 24.3471 37.1889 24.5119 37.4901C24.6767 37.7884 24.7591 38.1761 24.7591 38.6534V43H23.5147V42.1051H23.4636C23.3812 42.2699 23.2576 42.4318 23.0929 42.5909C22.9281 42.75 22.7164 42.8821 22.4579 42.9872C22.1994 43.0923 21.8897 43.1449 21.5289 43.1449ZM21.8059 42.1222C22.1582 42.1222 22.4593 42.0526 22.7093 41.9134C22.9622 41.7741 23.1539 41.5923 23.2846 41.3679C23.4181 41.1406 23.4849 40.8977 23.4849 40.6392V39.7955C23.4395 39.8409 23.3514 39.8835 23.2207 39.9233C23.0929 39.9602 22.9466 39.9929 22.7818 40.0213C22.617 40.0469 22.4565 40.071 22.3002 40.0938C22.144 40.1136 22.0133 40.1307 21.9082 40.1449C21.661 40.1761 21.4352 40.2287 21.2306 40.3026C21.0289 40.3764 20.867 40.483 20.7449 40.6222C20.6255 40.7585 20.5659 40.9403 20.5659 41.1676C20.5659 41.483 20.6824 41.7216 20.9153 41.8835C21.1483 42.0426 21.4451 42.1222 21.8059 42.1222ZM26.4561 43V36.4545H27.6877V37.4943H27.7559C27.8752 37.142 28.0854 36.8651 28.3865 36.6634C28.6905 36.4588 29.0343 36.3565 29.4178 36.3565C29.4973 36.3565 29.5911 36.3594 29.699 36.3651C29.8098 36.3707 29.8965 36.3778 29.959 36.3864V37.6051C29.9078 37.5909 29.8169 37.5753 29.6863 37.5582C29.5556 37.5384 29.4249 37.5284 29.2942 37.5284C28.9931 37.5284 28.7246 37.5923 28.4888 37.7202C28.2559 37.8452 28.0712 38.0199 27.9348 38.2443C27.7985 38.4659 27.7303 38.7187 27.7303 39.0028V43H26.4561ZM33.5843 43.1321C32.9508 43.1321 32.4054 42.9886 31.948 42.7017C31.4934 42.4119 31.144 42.0128 30.8997 41.5043C30.6554 40.9957 30.5332 40.4134 30.5332 39.7571C30.5332 39.0923 30.6582 38.5057 30.9082 37.9972C31.1582 37.4858 31.5105 37.0866 31.965 36.7997C32.4196 36.5128 32.9551 36.3693 33.5716 36.3693C34.0687 36.3693 34.5119 36.4616 34.9011 36.6463C35.2903 36.8281 35.6042 37.0838 35.8429 37.4134C36.0843 37.7429 36.2278 38.1278 36.2733 38.5682H35.0332C34.965 38.2614 34.8088 37.9972 34.5645 37.7756C34.323 37.554 33.9991 37.4432 33.5929 37.4432C33.2377 37.4432 32.9267 37.5369 32.6596 37.7244C32.3954 37.9091 32.1895 38.1733 32.0417 38.517C31.894 38.858 31.8201 39.2614 31.8201 39.7273C31.8201 40.2045 31.8926 40.6165 32.0375 40.9631C32.1824 41.3097 32.3869 41.5781 32.6511 41.7685C32.9181 41.9588 33.2321 42.054 33.5929 42.054C33.8343 42.054 34.0531 42.0099 34.2491 41.9219C34.448 41.831 34.6142 41.7017 34.7477 41.5341C34.8841 41.3665 34.9792 41.1648 35.0332 40.929H36.2733C36.2278 41.3523 36.09 41.7301 35.8599 42.0625C35.6298 42.3949 35.3216 42.6562 34.9352 42.8466C34.5517 43.0369 34.1014 43.1321 33.5843 43.1321ZM38.91 39.1136V43H37.6358V34.2727H38.8929V37.5199H38.9739C39.1273 37.1676 39.3617 36.8878 39.677 36.6804C39.9924 36.473 40.4043 36.3693 40.9128 36.3693C41.3617 36.3693 41.7537 36.4616 42.089 36.6463C42.427 36.831 42.6884 37.1065 42.873 37.473C43.0605 37.8366 43.1543 38.2912 43.1543 38.8366V43H41.8801V38.9901C41.8801 38.5099 41.7566 38.1378 41.5094 37.8736C41.2623 37.6065 40.9185 37.473 40.4782 37.473C40.177 37.473 39.9071 37.5369 39.6685 37.6648C39.4327 37.7926 39.2466 37.9801 39.1103 38.2273C38.9767 38.4716 38.91 38.767 38.91 39.1136Z" fill="white" fill-opacity="0.8"/>
<path d="M35.4969 20.5239L30.3132 15.3782C30.3132 15.3782 30.2984 15.3635 30.2885 15.3586C31.3637 13.7528 31.9408 11.8678 31.9408 9.89963C31.9408 7.25581 30.9051 4.76867 29.021 2.89841C27.1369 1.02815 24.6363 0 21.9679 0C19.2996 0 16.799 1.02815 14.9149 2.89841C11.0284 6.75643 11.0284 13.0379 14.9149 16.9009C16.799 18.7711 19.3046 19.7993 21.9679 19.7993C23.8668 19.7993 25.6868 19.2754 27.2602 18.2962C27.27 18.306 27.275 18.3158 27.2848 18.3256L32.4982 23.5006C32.8237 23.8237 33.2577 24 33.7164 24C34.1751 24 34.6091 23.8237 34.9346 23.5006L35.4969 22.9425C35.8224 22.6193 36 22.1885 36 21.7332C36 21.2778 35.8224 20.847 35.4969 20.5239ZM26.3625 14.2619C23.9359 16.6707 20 16.6707 17.5734 14.2619C15.1467 11.8531 15.1467 7.94614 17.5734 5.53733C20 3.12852 23.9359 3.12852 26.3625 5.53733C28.7892 7.94614 28.7892 11.8531 26.3625 14.2619Z" fill="white" fill-opacity="0.8"/>
</g>
<defs>
<filter id="filter0_d_375_3115" x="0" y="0" width="48" height="58" filterUnits="userSpaceOnUse" color-interpolation-filters="sRGB">
<feFlood flood-opacity="0" result="BackgroundImageFix"/>
<feColorMatrix in="SourceAlpha" type="matrix" values="0 0 0 0 0 0 0 0 0 0 0 0 0 0 0 0 0 0 127 0" result="hardAlpha"/>
<feOffset dy="4"/>
<feGaussianBlur stdDeviation="2"/>
<feComposite in2="hardAlpha" operator="out"/>
<feColorMatrix type="matrix" values="0 0 0 0 0 0 0 0 0 0 0 0 0 0 0 0 0 0 0.25 0"/>
<feBlend mode="normal" in2="BackgroundImageFix" result="effect1_dropShadow_375_3115"/>
<feBlend mode="normal" in="SourceGraphic" in2="effect1_dropShadow_375_3115" result="shape"/>
</filter>
</defs>
</svg>
