<svg width="60" height="60" viewBox="0 0 60 60" fill="none" xmlns="http://www.w3.org/2000/svg">
<path d="M0 20C0 8.9543 8.95431 0 20 0H40C51.0457 0 60 8.95431 60 20V40C60 51.0457 51.0457 60 40 60H20C8.9543 60 0 51.0457 0 40V20Z" fill="url(#paint0_radial_235_769)"/>
<path d="M41.8402 21.7672C41.7307 21.6059 41.5925 21.4676 41.4369 21.3639C41.3563 21.3121 41.2698 21.266 41.1834 21.2257C41.0048 21.1508 40.8089 21.1104 40.6015 21.1104C40.5093 21.1104 40.4229 21.1162 40.3365 21.1335C40.1636 21.1623 39.9965 21.2257 39.841 21.3178C39.7661 21.3639 39.6912 21.4158 39.622 21.4734L34.6902 25.7023H30.6226C30.3057 25.7023 30.0119 25.8003 29.7699 25.9616C29.6893 26.0192 29.6144 26.0768 29.5452 26.146C29.2687 26.4225 29.0958 26.8028 29.0958 27.2291V31.821C29.0958 32.2416 29.2687 32.6276 29.5452 32.9042C29.6144 32.9733 29.6893 33.0367 29.7699 33.0885C30.0119 33.2556 30.3057 33.3478 30.6226 33.3478H34.6902L39.622 37.5767C39.7373 37.6747 39.864 37.7496 40.0023 37.8072C40.1924 37.8878 40.3941 37.9397 40.6015 37.9397C40.9702 37.9397 41.2986 37.8014 41.5637 37.5825C41.8921 37.3059 42.1052 36.9026 42.1052 36.4417V22.6084C42.1052 22.2973 42.0131 22.0092 41.846 21.773L41.8402 21.7672Z" fill="white"/>
<path d="M30.6226 24.5443H34.2639L38.4121 20.9894V16.7029C38.4121 16.363 38.1356 16.0807 37.7899 16.0807H18.5639C17.1926 16.0807 16.0807 17.1926 16.0807 18.5639V43.3728C16.0807 44.744 17.1926 45.856 18.5639 45.856H37.7899C38.0204 45.856 38.2278 45.7292 38.3372 45.5276C38.4467 45.3259 38.4352 45.0839 38.3084 44.8938C37.692 43.972 37.692 42.7793 38.3084 41.8575C38.3718 41.7596 38.4121 41.6386 38.4121 41.5118V38.0549L34.2639 34.5001H30.6226C29.1419 34.5001 27.9378 33.2959 27.9378 31.8153V27.2234C27.9378 25.7427 29.1419 24.5385 30.6226 24.5385V24.5443ZM36.822 42.1341C36.5569 42.9407 36.5397 43.8106 36.8047 44.6172H18.5639C17.8782 44.6172 17.3251 44.0584 17.3251 43.3785C17.3251 42.6987 17.884 42.1398 18.5639 42.1398H36.822V42.1341Z" fill="white"/>
<path d="M45.4642 26.7394C45.395 26.5377 45.1819 26.4283 44.9802 26.4974C44.7786 26.5665 44.6691 26.7797 44.7382 26.9814C45.0148 27.811 45.1531 28.6637 45.1531 29.5222C45.1531 30.3806 45.0148 31.2333 44.7382 32.063C44.6691 32.2646 44.7786 32.4778 44.9802 32.547C45.0205 32.5585 45.0609 32.5642 45.1012 32.5642C45.2625 32.5642 45.4123 32.4605 45.4642 32.305C45.7695 31.4004 45.9193 30.4613 45.9193 29.5222C45.9193 28.5831 45.7638 27.6497 45.4642 26.7394Z" fill="white"/>
<path d="M43.5053 26.9814C43.3036 27.0505 43.1942 27.2637 43.2633 27.4653C43.488 28.1337 43.5975 28.825 43.5975 29.5222C43.5975 30.2193 43.4822 30.9049 43.2633 31.579C43.1942 31.7807 43.3036 31.9939 43.5053 32.063C43.5456 32.0745 43.5859 32.0803 43.6263 32.0803C43.7876 32.0803 43.9374 31.9766 43.9892 31.821C44.237 31.072 44.3637 30.3 44.3637 29.5222C44.3637 28.7444 44.237 27.9723 43.9892 27.2234C43.9201 27.0217 43.7069 26.9122 43.5053 26.9814Z" fill="white"/>
<defs>
<radialGradient id="paint0_radial_235_769" cx="0" cy="0" r="1" gradientUnits="userSpaceOnUse" gradientTransform="translate(3 56.5) rotate(-40.3937) scale(74.8415)">
<stop stop-color="#FF8B48"/>
<stop offset="0.41" stop-color="#FF4ACC"/>
<stop offset="0.55" stop-color="#FE4CC9"/>
<stop offset="0.65" stop-color="#FE55C2"/>
<stop offset="0.73" stop-color="#FD64B5"/>
<stop offset="0.81" stop-color="#FC7AA3"/>
<stop offset="0.88" stop-color="#FA958C"/>
<stop offset="0.95" stop-color="#F8B770"/>
<stop offset="1" stop-color="#F7D657"/>
</radialGradient>
</defs>
</svg>
