<svg width="31" height="26" viewBox="0 0 31 26" fill="none" xmlns="http://www.w3.org/2000/svg">
<g clip-path="url(#clip0_152_371)">
<path d="M28.3344 3.05847V2.00344C28.3344 1.71162 28.1324 1.45348 27.8462 1.38052C27.6329 1.33002 22.6047 0.0785675 19.9896 0.0785675C17.8795 0.0785675 16.1959 0.869842 15.4944 1.25706C14.7986 0.869842 13.115 0.0785675 11.0049 0.0785675C8.38981 0.0785675 3.36157 1.33002 3.14832 1.38052C2.86211 1.45348 2.66009 1.70601 2.66009 2.00344V3.05847C0.881121 3.38396 0.095459 3.84414 0.095459 4.57368V25.1131C0.095459 25.2927 0.168413 25.4611 0.303098 25.5845C0.437783 25.708 0.611751 25.7641 0.791331 25.7529C0.858674 25.7473 7.80056 25.1805 12.4809 24.681C13.014 24.6249 13.5808 24.8045 14.0017 25.1917C14.1757 25.3432 14.4282 25.5453 14.6246 25.6238C14.9164 25.7417 15.298 25.7585 15.5001 25.7585C15.7021 25.7585 16.0837 25.7417 16.3755 25.6294C16.5775 25.5509 16.8301 25.3545 17.0153 25.1861C17.4249 24.8101 17.9637 24.6305 18.5249 24.6866C23.1995 25.1805 30.1414 25.7529 30.2088 25.7585C30.3884 25.7697 30.5623 25.7136 30.697 25.5902C30.8261 25.4667 30.9047 25.2983 30.9047 25.1188V4.57368C30.9047 3.84414 30.119 3.38396 28.34 3.05847H28.3344ZM27.0493 2.50851V21.7292C25.4836 21.3644 22.0154 20.618 19.9896 20.618C18.3789 20.618 17.0097 21.0838 16.1398 21.4766V2.36821C16.7347 2.04272 18.1938 1.35808 19.9896 1.35808C21.9986 1.35808 25.7193 2.19424 27.0493 2.50851ZM3.94521 2.50851C5.27522 2.19424 8.99589 1.35808 11.0049 1.35808C12.7895 1.35808 14.2598 2.04272 14.8547 2.36821V21.4766C13.9848 21.0838 12.6156 20.618 11.0049 20.618C8.97906 20.618 5.50531 21.3644 3.94521 21.7292V2.50851Z" fill="white"/>
</g>
<defs>
<clipPath id="clip0_152_371">
<rect width="31" height="25.8315" fill="white"/>
</clipPath>
</defs>
</svg>
