<svg width="41" height="52" viewBox="0 0 41 52" fill="none" xmlns="http://www.w3.org/2000/svg">
<g filter="url(#filter0_d_375_3107)">
<path d="M4.06623 43V34.2727H5.38299V38.0653H9.73384V34.2727H11.0549V43H9.73384V39.1946H5.38299V43H4.06623ZM15.6273 43.1321C15.0137 43.1321 14.4782 42.9915 14.0208 42.7102C13.5634 42.429 13.2083 42.0355 12.9554 41.5298C12.7026 41.0241 12.5762 40.4332 12.5762 39.7571C12.5762 39.0781 12.7026 38.4844 12.9554 37.9759C13.2083 37.4673 13.5634 37.0724 14.0208 36.7912C14.4782 36.5099 15.0137 36.3693 15.6273 36.3693C16.2409 36.3693 16.7765 36.5099 17.2338 36.7912C17.6912 37.0724 18.0463 37.4673 18.2992 37.9759C18.552 38.4844 18.6784 39.0781 18.6784 39.7571C18.6784 40.4332 18.552 41.0241 18.2992 41.5298C18.0463 42.0355 17.6912 42.429 17.2338 42.7102C16.7765 42.9915 16.2409 43.1321 15.6273 43.1321ZM15.6316 42.0625C16.0293 42.0625 16.3588 41.9574 16.6202 41.7472C16.8816 41.5369 17.0748 41.2571 17.1998 40.9077C17.3276 40.5582 17.3915 40.1733 17.3915 39.7528C17.3915 39.3352 17.3276 38.9517 17.1998 38.6023C17.0748 38.25 16.8816 37.9673 16.6202 37.7543C16.3588 37.5412 16.0293 37.4347 15.6316 37.4347C15.231 37.4347 14.8986 37.5412 14.6344 37.7543C14.373 37.9673 14.1784 38.25 14.0506 38.6023C13.9256 38.9517 13.8631 39.3352 13.8631 39.7528C13.8631 40.1733 13.9256 40.5582 14.0506 40.9077C14.1784 41.2571 14.373 41.5369 14.6344 41.7472C14.8986 41.9574 15.231 42.0625 15.6316 42.0625ZM20.1007 43V36.4545H21.3237V37.5199H21.4047C21.541 37.1591 21.764 36.8778 22.0737 36.6761C22.3833 36.4716 22.7541 36.3693 23.1859 36.3693C23.6234 36.3693 23.9899 36.4716 24.2853 36.6761C24.5836 36.8807 24.8038 37.1619 24.9458 37.5199H25.014C25.1703 37.1705 25.4189 36.892 25.7598 36.6847C26.1007 36.4744 26.5069 36.3693 26.9785 36.3693C27.5723 36.3693 28.0566 36.5554 28.4316 36.9276C28.8095 37.2997 28.9984 37.8608 28.9984 38.6108V43H27.7243V38.7301C27.7243 38.2869 27.6035 37.9659 27.362 37.767C27.1206 37.5682 26.8322 37.4688 26.497 37.4688C26.0822 37.4688 25.7598 37.5966 25.5297 37.8523C25.2995 38.1051 25.1845 38.4304 25.1845 38.8281V43H23.9146V38.6491C23.9146 38.294 23.8038 38.0085 23.5822 37.7926C23.3606 37.5767 23.0723 37.4688 22.7172 37.4688C22.4757 37.4688 22.2527 37.5327 22.0481 37.6605C21.8464 37.7855 21.6831 37.9602 21.5581 38.1847C21.4359 38.4091 21.3748 38.669 21.3748 38.9645V43H20.1007ZM33.5272 43.1321C32.8823 43.1321 32.3269 42.9943 31.861 42.7188C31.3979 42.4403 31.04 42.0497 30.7871 41.5469C30.5371 41.0412 30.4121 40.4489 30.4121 39.7699C30.4121 39.0994 30.5371 38.5085 30.7871 37.9972C31.04 37.4858 31.3922 37.0866 31.8439 36.7997C32.2985 36.5128 32.8297 36.3693 33.4377 36.3693C33.807 36.3693 34.165 36.4304 34.5115 36.5526C34.8581 36.6747 35.1692 36.8665 35.4448 37.1278C35.7203 37.3892 35.9377 37.7287 36.0968 38.1463C36.2559 38.5611 36.3354 39.0653 36.3354 39.6591V40.1108H31.1323V39.1562H35.0868C35.0868 38.821 35.0186 38.5241 34.8823 38.2656C34.7459 38.0043 34.5542 37.7983 34.307 37.6477C34.0627 37.4972 33.7757 37.4219 33.4462 37.4219C33.0882 37.4219 32.7757 37.5099 32.5087 37.6861C32.2445 37.8594 32.04 38.0866 31.8951 38.3679C31.753 38.6463 31.682 38.9489 31.682 39.2756V40.0213C31.682 40.4588 31.7587 40.831 31.9121 41.1378C32.0684 41.4446 32.2857 41.679 32.5641 41.8409C32.8425 42 33.1678 42.0795 33.54 42.0795C33.7814 42.0795 34.0016 42.0455 34.2005 41.9773C34.3993 41.9062 34.5712 41.8011 34.7161 41.6619C34.861 41.5227 34.9718 41.3509 35.0485 41.1463L36.2544 41.3636C36.1578 41.7187 35.9846 42.0298 35.7346 42.2969C35.4874 42.5611 35.1763 42.767 34.8013 42.9148C34.4292 43.0597 34.0044 43.1321 33.5272 43.1321Z" fill="url(#paint0_radial_375_3107)"/>
<path d="M31.0385 12.4403L19.8437 0.124496C19.7751 0.0461095 19.6744 0 19.5691 0C19.4639 0 19.3632 0.0461095 19.2945 0.124496L8.09976 12.4403C7.99907 12.551 7.97161 12.7124 8.03111 12.8461C8.0906 12.9798 8.22333 13.072 8.37436 13.072H10.8184V23.6219C10.8184 23.8294 10.9877 24 11.1937 24H17.2304C17.4364 24 17.6057 23.8294 17.6057 23.6219V18.1625H21.5372V23.6219C21.5372 23.8294 21.7065 24 21.9124 24H27.9492C28.1552 24 28.3245 23.8294 28.3245 23.6219V13.072H30.7685C30.915 13.072 31.0523 12.9844 31.1118 12.8461C31.1712 12.7078 31.1438 12.551 31.0431 12.4403H31.0385Z" fill="url(#paint1_radial_375_3107)"/>
</g>
<defs>
<filter id="filter0_d_375_3107" x="-1" y="0" width="42" height="58" filterUnits="userSpaceOnUse" color-interpolation-filters="sRGB">
<feFlood flood-opacity="0" result="BackgroundImageFix"/>
<feColorMatrix in="SourceAlpha" type="matrix" values="0 0 0 0 0 0 0 0 0 0 0 0 0 0 0 0 0 0 127 0" result="hardAlpha"/>
<feOffset dy="4"/>
<feGaussianBlur stdDeviation="2"/>
<feComposite in2="hardAlpha" operator="out"/>
<feColorMatrix type="matrix" values="0 0 0 0 0 0 0 0 0 0 0 0 0 0 0 0 0 0 0.25 0"/>
<feBlend mode="normal" in2="BackgroundImageFix" result="effect1_dropShadow_375_3107"/>
<feBlend mode="normal" in="SourceGraphic" in2="effect1_dropShadow_375_3107" result="shape"/>
</filter>
<radialGradient id="paint0_radial_375_3107" cx="0" cy="0" r="1" gradientUnits="userSpaceOnUse" gradientTransform="translate(3 45.6) rotate(-17.738) scale(38.1684 36.8818)">
<stop stop-color="#FF4ACC"/>
<stop offset="0.177593" stop-color="#F86B8D"/>
<stop offset="0.716046" stop-color="#FF9C52"/>
<stop offset="1" stop-color="#F7D657"/>
</radialGradient>
<radialGradient id="paint1_radial_375_3107" cx="0" cy="0" r="1" gradientUnits="userSpaceOnUse" gradientTransform="translate(8 19.2) rotate(-27.1422) scale(27.8073 37.591)">
<stop stop-color="#FF4ACC"/>
<stop offset="0.177593" stop-color="#F86B8D"/>
<stop offset="0.716046" stop-color="#FF9C52"/>
<stop offset="1" stop-color="#F7D657"/>
</radialGradient>
</defs>
</svg>
