<svg width="30" height="30" viewBox="0 0 30 30" fill="none" xmlns="http://www.w3.org/2000/svg">
<g clip-path="url(#clip0_152_372)">
<path d="M25.8403 5.76724C25.7309 5.60591 25.5926 5.46764 25.437 5.36393C25.3564 5.31208 25.2699 5.26599 25.1835 5.22566C25.0049 5.15076 24.809 5.11043 24.6016 5.11043C24.5094 5.11043 24.423 5.11619 24.3366 5.13347C24.1637 5.16228 23.9967 5.22566 23.8411 5.31784C23.7662 5.36393 23.6913 5.41579 23.6222 5.4734L22.4123 6.51047L18.6903 9.70232H14.6227C14.3059 9.70232 14.012 9.80027 13.77 9.96159C13.6894 10.0192 13.6145 10.0768 13.5453 10.146C13.2688 10.4225 13.0959 10.8028 13.0959 11.2291V15.821C13.0959 16.2416 13.2688 16.6276 13.5453 16.9042C13.6145 16.9733 13.6894 17.0367 13.77 17.0885C14.012 17.2556 14.3059 17.3478 14.6227 17.3478H18.6903L22.4123 20.5397L23.6222 21.5767C23.7374 21.6747 23.8641 21.7496 24.0024 21.8072C24.1925 21.8878 24.3942 21.9397 24.6016 21.9397C24.9703 21.9397 25.2988 21.8014 25.5638 21.5825C25.8922 21.3059 26.1054 20.9026 26.1054 20.4417V6.60841C26.1054 6.29729 26.0132 6.00922 25.8461 5.773L25.8403 5.76724Z" fill="white"/>
<path d="M14.6225 8.54426H18.2638L22.412 4.98943V0.702897C22.412 0.36297 22.1355 0.080658 21.7898 0.080658H2.56376C1.19253 0.080658 0.0805664 1.19262 0.0805664 2.56385V27.3728C0.0805664 28.744 1.19253 29.856 2.56376 29.856H21.7898C22.0203 29.856 22.2277 29.7292 22.3371 29.5276C22.4466 29.3259 22.4351 29.0839 22.3083 28.8938C21.6919 27.972 21.6919 26.7793 22.3083 25.8575C22.3717 25.7596 22.412 25.6386 22.412 25.5118V22.0549L18.2638 18.5001H14.6225C13.1418 18.5001 11.9377 17.2959 11.9377 15.8152V11.2234C11.9377 9.74265 13.1418 8.5385 14.6225 8.5385V8.54426ZM20.8219 26.134C20.5568 26.9407 20.5396 27.8106 20.8046 28.6172H2.56376C1.87815 28.6172 1.32504 28.0584 1.32504 27.3785C1.32504 26.6987 1.88391 26.1398 2.56376 26.1398H20.8219V26.134Z" fill="white"/>
<path d="M29.4642 10.7394C29.3951 10.5377 29.1819 10.4283 28.9803 10.4974C28.7786 10.5665 28.6691 10.7797 28.7383 10.9814C29.0148 11.811 29.1531 12.6637 29.1531 13.5222C29.1531 14.3806 29.0148 15.2333 28.7383 16.063C28.6691 16.2646 28.7786 16.4778 28.9803 16.547C29.0206 16.5585 29.0609 16.5642 29.1012 16.5642C29.2626 16.5642 29.4124 16.4605 29.4642 16.305C29.7696 15.4004 29.9194 14.4613 29.9194 13.5222C29.9194 12.5831 29.7638 11.6497 29.4642 10.7394Z" fill="white"/>
<path d="M27.5052 10.9814C27.3035 11.0505 27.194 11.2637 27.2632 11.4653C27.4879 12.1337 27.5973 12.825 27.5973 13.5222C27.5973 14.2193 27.4821 14.9049 27.2632 15.579C27.194 15.7807 27.3035 15.9939 27.5052 16.063C27.5455 16.0745 27.5858 16.0803 27.6262 16.0803C27.7875 16.0803 27.9373 15.9766 27.9891 15.821C28.2369 15.072 28.3636 14.3 28.3636 13.5222C28.3636 12.7444 28.2369 11.9723 27.9891 11.2234C27.92 11.0217 27.7068 10.9122 27.5052 10.9814Z" fill="white"/>
</g>
<defs>
<clipPath id="clip0_152_372">
<rect width="30" height="29.9366" fill="white"/>
</clipPath>
</defs>
</svg>
