<svg width="60" height="60" viewBox="0 0 60 60" fill="none" xmlns="http://www.w3.org/2000/svg">
<path d="M0 20C0 8.9543 8.95431 0 20 0H40C51.0457 0 60 8.95431 60 20V40C60 51.0457 51.0457 60 40 60H20C8.9543 60 0 51.0457 0 40V20Z" fill="url(#paint0_radial_235_749)"/>
<path d="M38.7867 26.5038V28.1185H18.3841V26.5038C18.3841 26.5038 18.433 26.5324 18.4575 26.5468C19.4942 27.1296 20.6728 27.4449 21.9052 27.4449C23.7489 27.4449 25.4849 26.7426 26.7907 25.4671C27.0547 25.2091 27.2944 24.932 27.5095 24.6406C27.9106 24.1008 28.2235 23.5084 28.4436 22.8826C28.4876 22.7536 28.5316 22.6198 28.5659 22.4861H28.5952C28.6343 22.6198 28.6734 22.7488 28.7175 22.8826C28.9375 23.5084 29.2505 24.1008 29.6515 24.6406C29.8667 24.932 30.1063 25.2043 30.3704 25.4671C31.6761 26.7426 33.4122 27.4449 35.2559 27.4449C36.4834 27.4449 37.6668 27.1344 38.7036 26.5468C38.728 26.5324 38.7525 26.5181 38.7769 26.5038H38.7867Z" fill="white"/>
<path d="M41.408 26.2984L45.5305 23.9192V33.1777L41.4177 30.7938L41.408 30.789V26.2984Z" fill="white"/>
<path d="M45.5305 33.5694C45.4572 33.5694 45.3887 33.5503 45.3251 33.5121L41.227 31.1378C41.0314 31.0374 40.9531 30.8034 41.051 30.6123C41.1488 30.4164 41.3933 30.34 41.5938 30.4355H41.6036C41.6036 30.4355 41.6182 30.4498 41.628 30.4546L45.1295 32.485V24.612L41.6182 26.6423C41.4275 26.7522 41.1781 26.6901 41.0656 26.5038C40.9531 26.3175 41.0167 26.0738 41.2074 25.9639L45.33 23.5848C45.4572 23.5132 45.6088 23.5132 45.7359 23.5848C45.8631 23.6565 45.9413 23.7855 45.9413 23.9288V33.1872C45.9413 33.3306 45.8631 33.4595 45.7359 33.5312C45.6723 33.5646 45.6039 33.5838 45.5354 33.5838L45.5305 33.5694Z" fill="white"/>
<path d="M33.9599 45.9331C33.6421 45.9331 33.3389 45.7659 33.1873 45.4697L28.9718 37.3387C28.7566 36.9231 28.9277 36.4119 29.3532 36.2017C29.7787 35.9915 30.3019 36.1587 30.5171 36.5744L34.7326 44.7053C34.9478 45.121 34.7766 45.6321 34.3512 45.8424C34.224 45.9045 34.092 45.9331 33.9599 45.9331Z" fill="white"/>
<path d="M23.2158 45.9331C23.0838 45.9331 22.9468 45.9045 22.8197 45.8376C22.3942 45.6226 22.228 45.1114 22.448 44.7006L26.7369 36.5696C26.9569 36.154 27.4802 35.9915 27.9008 36.2065C28.3262 36.4215 28.4925 36.9327 28.2724 37.3435L23.9836 45.4745C23.832 45.7659 23.5288 45.9331 23.2158 45.9331Z" fill="white"/>
<path d="M31.6664 35.2033V35.6619C31.6664 36.2591 31.2507 36.7654 30.6834 36.9135C30.5709 36.9422 30.4584 36.9565 30.3362 36.9565H26.8298C26.732 36.9565 26.6391 36.947 26.5461 36.9279C25.9495 36.7989 25.5045 36.2829 25.5045 35.6619V35.2033H31.6664Z" fill="white"/>
<path d="M31.2653 35.2033V35.6619C31.2653 36.1062 30.9328 36.4788 30.4976 36.5505C30.4487 36.56 30.3949 36.5648 30.3411 36.5648H26.8347C26.8053 36.5648 26.776 36.5648 26.7466 36.5648C26.2772 36.5218 25.9153 36.1348 25.9153 35.6667V35.208H25.1084V35.6667C25.1084 36.4406 25.6414 37.0903 26.3652 37.291C26.5168 37.334 26.6733 37.3578 26.8396 37.3578H30.346C30.5318 37.3578 30.7078 37.3292 30.879 37.2766C31.5734 37.0569 32.0771 36.4167 32.0771 35.6667V35.208H31.2702L31.2653 35.2033Z" fill="white"/>
<path d="M16.3742 26.628H17.23V30.4689H16.3742C15.8754 30.4689 15.4695 30.0724 15.4695 29.5899V27.5118C15.4695 27.0245 15.8754 26.628 16.3742 26.628Z" fill="white"/>
<path d="M16.3742 26.2315C15.6553 26.2315 15.0685 26.8047 15.0685 27.507V29.5851C15.0685 30.2874 15.6553 30.8607 16.3742 30.8607H17.23V30.0724H16.3742C16.1003 30.0724 15.8754 29.8527 15.8754 29.5851V27.507C15.8754 27.2395 16.1003 27.0197 16.3742 27.0197H17.23V26.2315H16.3742Z" fill="white"/>
<path d="M41.408 26.2984H39.9408V30.7938H41.408V26.2984Z" fill="white"/>
<path d="M41.7552 26.0977C41.6867 25.983 41.5547 25.9066 41.408 25.9066H39.9408V26.6949H41.002V30.3973H39.9408V31.1855H41.408C41.5596 31.1855 41.6867 31.1043 41.7601 30.9897C41.7943 30.9323 41.8139 30.8655 41.8139 30.7938V26.2984C41.8139 26.2219 41.7943 26.155 41.7552 26.0977Z" fill="white"/>
<path d="M28.6441 44.4235C28.1649 44.4235 27.7785 44.0461 27.7785 43.5779V36.9565C27.7785 36.4884 28.1649 36.111 28.6441 36.111C29.1234 36.111 29.5097 36.4884 29.5097 36.9565V43.5779C29.5097 44.0461 29.1234 44.4235 28.6441 44.4235Z" fill="white"/>
<path d="M38.7867 26.5038V31.8209C38.7867 33.063 37.75 34.0758 36.4785 34.0758H20.6924C19.4209 34.0758 18.3841 33.063 18.3841 31.8209V26.5038C18.3841 26.5038 18.433 26.5324 18.4575 26.5468C19.4942 27.1296 20.6728 27.4449 21.9052 27.4449C23.7489 27.4449 25.4849 26.7426 26.7907 25.4671C27.0547 25.2091 27.2944 24.932 27.5095 24.6406H29.6564C29.8716 24.932 30.1112 25.2043 30.3753 25.4671C31.681 26.7426 33.4171 27.4449 35.2608 27.4449C36.4882 27.4449 37.6717 27.1344 38.7085 26.5468C38.7329 26.5324 38.7574 26.5181 38.7818 26.5038L38.7867 26.5038Z" fill="white"/>
<path d="M21.9052 15.0669C18.7265 15.0669 16.1492 17.5845 16.1492 20.6898C16.1492 22.0274 16.6285 23.2552 17.4256 24.2202C17.5479 24.3683 17.675 24.5069 17.8071 24.6406C17.9538 24.7839 18.1054 24.9225 18.2668 25.0467C18.3059 25.0801 18.345 25.1088 18.3841 25.1375C18.4526 25.19 18.5162 25.2378 18.5895 25.2856C18.702 25.362 18.8145 25.4337 18.9319 25.5053C19.8023 26.0213 20.8195 26.3175 21.9101 26.3175C23.5141 26.3175 24.9666 25.6773 26.0082 24.6454C26.5168 24.1438 26.9276 23.5466 27.2161 22.8873C27.2748 22.7584 27.3237 22.6246 27.3677 22.4908C27.4117 22.3618 27.4509 22.2281 27.4851 22.0943C27.6025 21.6452 27.666 21.1771 27.666 20.6946C27.6611 17.5845 25.0839 15.0669 21.9052 15.0669ZM23.0887 22.1086C22.7659 22.3666 22.3502 22.5243 21.9052 22.5243C21.7438 22.5243 21.5873 22.5052 21.4357 22.4669C20.6288 22.2615 20.0322 21.5449 20.0322 20.6946C20.0322 19.6818 20.8733 18.8601 21.9052 18.8601C22.9371 18.8601 23.7831 19.6818 23.7831 20.6946C23.7831 21.2678 23.5141 21.779 23.0935 22.1134L23.0887 22.1086Z" fill="white"/>
<path d="M35.2657 15.0669C32.0869 15.0669 29.5097 17.5845 29.5097 20.6898C29.5097 21.1723 29.5733 21.6405 29.6906 22.0895C29.7249 22.2233 29.764 22.3523 29.808 22.4861C29.852 22.6198 29.9058 22.7536 29.9596 22.8826C30.2481 23.5418 30.6589 24.139 31.1675 24.6406C32.2092 25.6725 33.6616 26.3175 35.2657 26.3175C36.3562 26.3175 37.3734 26.0213 38.2439 25.5053C38.3613 25.4384 38.4737 25.362 38.5813 25.2856C38.6498 25.2378 38.7183 25.19 38.7867 25.1375C38.8258 25.1088 38.865 25.0754 38.9041 25.0467C39.0655 24.9177 39.2171 24.7839 39.3638 24.6406C39.5007 24.5069 39.6279 24.3683 39.7452 24.2202C40.5424 23.2552 41.0216 22.0274 41.0216 20.6898C41.0216 17.5845 38.4444 15.0669 35.2657 15.0669ZM35.2657 18.8601C36.3024 18.8601 37.1436 19.6818 37.1436 20.6946C37.1436 21.5449 36.5469 22.2615 35.74 22.4669C35.5884 22.5052 35.4319 22.5243 35.2705 22.5243C34.8206 22.5243 34.4098 22.3714 34.0871 22.1086C33.6665 21.7742 33.3975 21.2631 33.3975 20.6898C33.3975 19.677 34.2387 18.8553 35.2705 18.8553L35.2657 18.8601Z" fill="white"/>
<path d="M35.2657 18.0718C33.7839 18.0718 32.5808 19.247 32.5808 20.6946C32.5808 21.2105 32.7324 21.6882 32.9965 22.0943C33.0894 22.2376 33.1921 22.3666 33.3095 22.4908C33.4562 22.6437 33.6176 22.7775 33.7937 22.8873C34.2142 23.1597 34.7179 23.3173 35.2608 23.3173C35.3928 23.3173 35.5248 23.3078 35.6569 23.2886C35.8672 23.26 36.0677 23.2027 36.2633 23.1262C36.4149 23.0689 36.5567 22.9972 36.6936 22.9112C37.4468 22.4478 37.9456 21.6261 37.9456 20.6946C37.9456 19.247 36.7425 18.0718 35.2608 18.0718H35.2657ZM34.0822 22.1134C33.6616 21.779 33.3927 21.2678 33.3927 20.6946C33.3927 19.6818 34.2338 18.8601 35.2657 18.8601C36.2975 18.8601 37.1436 19.6818 37.1436 20.6946C37.1436 21.5449 36.5469 22.2615 35.74 22.4669C35.5884 22.5052 35.4319 22.5243 35.2705 22.5243C34.8206 22.5243 34.4098 22.3714 34.0871 22.1086L34.0822 22.1134Z" fill="white"/>
<defs>
<radialGradient id="paint0_radial_235_749" cx="0" cy="0" r="1" gradientUnits="userSpaceOnUse" gradientTransform="translate(-5.5 69.5) rotate(-38.9515) scale(107.371)">
<stop offset="0.01" stop-color="#121523"/>
<stop offset="0.07" stop-color="#171A2B"/>
<stop offset="0.23" stop-color="#21253A"/>
<stop offset="0.4" stop-color="#282B44"/>
<stop offset="0.65" stop-color="#2A2E47"/>
<stop offset="1" stop-color="#4B4C79"/>
</radialGradient>
</defs>
</svg>
