<svg width="60" height="60" viewBox="0 0 60 60" fill="none" xmlns="http://www.w3.org/2000/svg">
<path d="M0 20C0 8.9543 8.95431 0 20 0H40C51.0457 0 60 8.95431 60 20V40C60 51.0457 51.0457 60 40 60H20C8.9543 60 0 51.0457 0 40V20Z" fill="url(#paint0_radial_235_747)"/>
<path d="M27.6786 29.5311C28.0227 29.5311 28.3232 29.7878 28.345 30.132C28.3669 30.5089 28.0719 30.8203 27.7004 30.8203H25.0129C24.7343 30.8203 24.5267 31.0715 24.5813 31.3447C25.1167 34.1251 27.5639 36.2227 30.4973 36.2227C33.4361 36.2227 35.8833 34.1251 36.4187 31.3447C36.4733 31.0715 36.2657 30.8203 35.9871 30.8203H33.2122C32.8407 30.8203 32.5457 30.5089 32.5676 30.132C32.5894 29.7878 32.8899 29.5256 33.2395 29.5256H36.0855C36.3313 29.5256 36.5279 29.329 36.5279 29.0832V28.5369C36.5279 28.2911 36.3313 28.0944 36.0855 28.0944H33.234C32.8899 28.0944 32.5894 27.8377 32.5676 27.4936C32.5457 27.1167 32.8407 26.8053 33.2122 26.8053H36.0855C36.3313 26.8053 36.5279 26.6086 36.5279 26.3628V25.8111C36.5279 25.5653 36.3313 25.3686 36.0855 25.3686H33.234C32.8899 25.3686 32.5894 25.1119 32.5676 24.7678C32.5457 24.3908 32.8407 24.0795 33.2122 24.0795H36.0855C36.3313 24.0795 36.5279 23.8828 36.5279 23.637V23.0853C36.5279 22.8395 36.3313 22.6428 36.0855 22.6428H33.234C32.8899 22.6428 32.5894 22.3861 32.5676 22.0419C32.5457 21.665 32.8407 21.3537 33.2122 21.3537H35.6485C35.9653 21.3537 36.1783 21.0314 36.0527 20.7364C35.135 18.5951 32.9937 17.0765 30.4973 17.0765C28.0009 17.0765 25.8541 18.5951 24.9419 20.7637C24.8217 21.0532 25.0347 21.37 25.3515 21.37H27.6786C28.0227 21.37 28.3232 21.6268 28.345 21.9709C28.3669 22.3478 28.0719 22.6592 27.7004 22.6592H24.9145C24.6687 22.6592 24.4721 22.8559 24.4721 23.1017V23.6534C24.4721 23.8992 24.6687 24.0959 24.9145 24.0959H27.6786C28.0227 24.0959 28.3232 24.3526 28.345 24.6967C28.3669 25.0737 28.0719 25.385 27.7004 25.385H24.9145C24.6687 25.385 24.4721 25.5817 24.4721 25.8275V26.3792C24.4721 26.625 24.6687 26.8217 24.9145 26.8217H27.6786C28.0227 26.8217 28.3232 27.0784 28.345 27.4226C28.3669 27.7995 28.0719 28.1108 27.7004 28.1108H24.9145C24.6687 28.1108 24.4721 28.3075 24.4721 28.5533V29.542C24.4721 29.542 24.4775 29.542 24.483 29.542H27.6786V29.5311Z" fill="white"/>
<path d="M38.7293 27.6957C38.194 27.6957 37.7625 28.1272 37.7625 28.6626V30.7001C37.7625 34.4365 34.7253 37.4737 30.9889 37.4737H30.0056C26.2693 37.4737 23.2321 34.4365 23.2321 30.7001V28.6626C23.2321 28.1272 22.8005 27.6957 22.2652 27.6957C21.7299 27.6957 21.2983 28.1272 21.2983 28.6626V30.7001C21.2983 35.1302 24.625 38.8011 28.9131 39.3364V43.3732H26.9685C25.7503 43.3732 24.7561 44.3674 24.7561 45.5855V46.2574C24.7561 46.5087 24.9582 46.7108 25.2095 46.7108H35.785C36.0363 46.7108 36.2384 46.5087 36.2384 46.2574V45.5855C36.2384 44.3674 35.2442 43.3732 34.0261 43.3732H32.0814V39.3364C36.3695 38.8011 39.6962 35.1302 39.6962 30.7001V28.6626C39.6962 28.1272 39.2647 27.6957 38.7293 27.6957Z" fill="white"/>
<path d="M38.713 26.6523C38.1831 26.6523 37.757 26.2263 37.757 25.6964V21.7852C37.757 21.2553 38.1831 20.8293 38.713 20.8293C39.2428 20.8293 39.6689 21.2553 39.6689 21.7852V25.6964C39.6689 26.2263 39.2428 26.6523 38.713 26.6523Z" fill="white"/>
<path d="M44.9621 26.6523C44.4322 26.6523 44.0062 26.2263 44.0062 25.6964V21.7852C44.0062 21.2553 44.4322 20.8293 44.9621 20.8293C45.492 20.8293 45.9181 21.2553 45.9181 21.7852V25.6964C45.9181 26.2263 45.492 26.6523 44.9621 26.6523Z" fill="white"/>
<path d="M41.8375 28.7882C41.3077 28.7882 40.8816 28.3621 40.8816 27.8322V19.6493C40.8816 19.1195 41.3077 18.6934 41.8375 18.6934C42.3674 18.6934 42.7935 19.1195 42.7935 19.6493V27.8322C42.7935 28.3621 42.3674 28.7882 41.8375 28.7882Z" fill="white"/>
<path d="M16.0379 26.6523C15.508 26.6523 15.0819 26.2263 15.0819 25.6964V21.7852C15.0819 21.2553 15.508 20.8293 16.0379 20.8293C16.5678 20.8293 16.9938 21.2553 16.9938 21.7852V25.6964C16.9938 26.2263 16.5678 26.6523 16.0379 26.6523Z" fill="white"/>
<path d="M22.287 26.6523C21.7572 26.6523 21.3311 26.2263 21.3311 25.6964V21.7852C21.3311 21.2553 21.7572 20.8293 22.287 20.8293C22.8169 20.8293 23.243 21.2553 23.243 21.7852V25.6964C23.243 26.2263 22.8169 26.6523 22.287 26.6523Z" fill="white"/>
<path d="M19.1625 28.7882C18.6326 28.7882 18.2065 28.3621 18.2065 27.8322V19.6493C18.2065 19.1195 18.6326 18.6934 19.1625 18.6934C19.6923 18.6934 20.1184 19.1195 20.1184 19.6493V27.8322C20.1184 28.3621 19.6923 28.7882 19.1625 28.7882Z" fill="white"/>
<defs>
<radialGradient id="paint0_radial_235_747" cx="0" cy="0" r="1" gradientUnits="userSpaceOnUse" gradientTransform="translate(3 56.5) rotate(-40.3937) scale(74.8415)">
<stop stop-color="#FF8B48"/>
<stop offset="0.41" stop-color="#FF4ACC"/>
<stop offset="0.55" stop-color="#FE4CC9"/>
<stop offset="0.65" stop-color="#FE55C2"/>
<stop offset="0.73" stop-color="#FD64B5"/>
<stop offset="0.81" stop-color="#FC7AA3"/>
<stop offset="0.88" stop-color="#FA958C"/>
<stop offset="0.95" stop-color="#F8B770"/>
<stop offset="1" stop-color="#F7D657"/>
</radialGradient>
</defs>
</svg>
