<svg width="60" height="60" viewBox="0 0 60 60" fill="none" xmlns="http://www.w3.org/2000/svg">
<path d="M0 20C0 8.9543 8.95431 0 20 0H40C51.0457 0 60 8.95431 60 20V40C60 51.0457 51.0457 60 40 60H20C8.9543 60 0 51.0457 0 40V20Z" fill="url(#paint0_radial_235_750)"/>
<path d="M43.1281 21.0797H32.563L40.0472 15.3223C40.3562 15.086 40.4107 14.6453 40.1744 14.3408C39.9381 14.0318 39.4974 13.9773 39.1884 14.2136L30.4955 20.9025L21.8071 14.209C21.4981 13.9727 21.0619 14.0273 20.821 14.3363C20.5847 14.6453 20.6438 15.0815 20.9483 15.3178L28.437 21.0797H17.8719C16.3223 21.0797 15.0636 22.3385 15.0636 23.888V42.1281C15.0636 43.6777 16.3223 44.9364 17.8719 44.9364H43.1281C44.6777 44.9364 45.9364 43.6777 45.9364 42.1281V23.888C45.9364 22.3385 44.6777 21.0797 43.1281 21.0797ZM38.4295 39.8833C38.2659 40.7785 37.5797 41.4419 36.6846 41.5828C35.3486 41.7873 32.4994 42.1281 28.3961 42.1281C24.2927 42.1281 21.439 41.7873 20.1076 41.5828C19.2124 41.4465 18.5308 40.7785 18.3626 39.8879C18.14 38.6791 17.8719 36.5025 17.8719 33.0081C17.8719 29.5136 18.14 27.3415 18.3626 26.1328C18.5262 25.2376 19.2124 24.5742 20.1076 24.4333C21.4436 24.2288 24.2927 23.888 28.3961 23.888C32.4994 23.888 35.3531 24.2288 36.6846 24.4333C37.5797 24.5696 38.2614 25.2376 38.4295 26.1283C38.6522 27.337 38.9203 29.5136 38.9203 33.0081C38.9203 36.5025 38.6522 38.6746 38.4295 39.8833ZM41.724 40.724C40.9515 40.724 40.3198 40.0923 40.3198 39.3198C40.3198 38.5473 40.9515 37.9157 41.724 37.9157C42.4965 37.9157 43.1281 38.5473 43.1281 39.3198C43.1281 40.0923 42.4965 40.724 41.724 40.724ZM41.724 36.5161C40.9515 36.5161 40.3198 35.8845 40.3198 35.112C40.3198 34.3395 40.9515 33.7079 41.724 33.7079C42.4965 33.7079 43.1281 34.3395 43.1281 35.112C43.1281 35.8845 42.4965 36.5161 41.724 36.5161ZM41.724 32.3083C40.9515 32.3083 40.3198 31.6766 40.3198 30.9041C40.3198 30.1316 40.9515 29.5 41.724 29.5C42.4965 29.5 43.1281 30.1316 43.1281 30.9041C43.1281 31.6766 42.4965 32.3083 41.724 32.3083Z" fill="white"/>
<defs>
<radialGradient id="paint0_radial_235_750" cx="0" cy="0" r="1" gradientUnits="userSpaceOnUse" gradientTransform="translate(-5.5 69.5) rotate(-38.9515) scale(107.371)">
<stop offset="0.01" stop-color="#121523"/>
<stop offset="0.07" stop-color="#171A2B"/>
<stop offset="0.23" stop-color="#21253A"/>
<stop offset="0.4" stop-color="#282B44"/>
<stop offset="0.65" stop-color="#2A2E47"/>
<stop offset="1" stop-color="#4B4C79"/>
</radialGradient>
</defs>
</svg>
