<svg width="60" height="60" viewBox="0 0 60 60" fill="none" xmlns="http://www.w3.org/2000/svg">
<path d="M0 20C0 8.9543 8.95431 0 20 0H40C51.0457 0 60 8.95431 60 20V40C60 51.0457 51.0457 60 40 60H20C8.9543 60 0 51.0457 0 40V20Z" fill="url(#paint0_radial_235_774)"/>
<path d="M43.3344 20.0585V19.0034C43.3344 18.7116 43.1323 18.4535 42.8461 18.3805C42.6329 18.33 37.6046 17.0786 34.9895 17.0786C32.8794 17.0786 31.1959 17.8698 30.4944 18.2571C29.7985 17.8698 28.115 17.0786 26.0049 17.0786C23.3898 17.0786 18.3615 18.33 18.1483 18.3805C17.8621 18.4535 17.66 18.706 17.66 19.0034V20.0585C15.8811 20.384 15.0954 20.8441 15.0954 21.5737V42.1131C15.0954 42.2927 15.1684 42.4611 15.303 42.5845C15.4377 42.708 15.6117 42.7641 15.7913 42.7529C15.8586 42.7473 22.8005 42.1805 27.4808 41.681C28.0139 41.6249 28.5807 41.8045 29.0016 42.1917C29.1756 42.3432 29.4281 42.5453 29.6245 42.6238C29.9164 42.7417 30.298 42.7585 30.5 42.7585C30.702 42.7585 31.0836 42.7417 31.3755 42.6294C31.5775 42.5509 31.83 42.3545 32.0152 42.1861C32.4249 41.8101 32.9636 41.6305 33.5248 41.6866C38.1995 42.1805 45.1414 42.7529 45.2087 42.7585C45.3883 42.7697 45.5623 42.7136 45.697 42.5901C45.826 42.4667 45.9046 42.2983 45.9046 42.1188V21.5737C45.9046 20.8441 45.1189 20.384 43.34 20.0585H43.3344ZM42.0492 19.5085V38.7292C40.4835 38.3644 37.0154 37.618 34.9895 37.618C33.3789 37.618 32.0096 38.0838 31.1398 38.4766V19.3682C31.7346 19.0427 33.1937 18.3581 34.9895 18.3581C36.9985 18.3581 40.7192 19.1942 42.0492 19.5085ZM18.9451 19.5085C20.2752 19.1942 23.9958 18.3581 26.0049 18.3581C27.7895 18.3581 29.2598 19.0427 29.8546 19.3682V38.4766C28.9848 38.0838 27.6155 37.618 26.0049 37.618C23.979 37.618 20.5052 38.3644 18.9451 38.7292V19.5085Z" fill="white"/>
<defs>
<radialGradient id="paint0_radial_235_774" cx="0" cy="0" r="1" gradientUnits="userSpaceOnUse" gradientTransform="translate(-5.5 69.5) rotate(-38.9515) scale(107.371)">
<stop offset="0.01" stop-color="#121523"/>
<stop offset="0.07" stop-color="#171A2B"/>
<stop offset="0.23" stop-color="#21253A"/>
<stop offset="0.4" stop-color="#282B44"/>
<stop offset="0.65" stop-color="#2A2E47"/>
<stop offset="1" stop-color="#4B4C79"/>
</radialGradient>
</defs>
</svg>
