<svg width="31" height="31" viewBox="0 0 31 31" fill="none" xmlns="http://www.w3.org/2000/svg">
<g clip-path="url(#clip0_152_367)">
<path d="M23.7866 11.5038V13.1185H3.38403V11.5038C3.38403 11.5038 3.43294 11.5324 3.45739 11.5468C4.49415 12.1296 5.67272 12.4449 6.90509 12.4449C8.74876 12.4449 10.4848 11.7426 11.7906 10.4671C12.0546 10.2091 12.2943 9.93204 12.5094 9.64062C12.9105 9.10079 13.2234 8.5084 13.4435 7.88257C13.4875 7.75358 13.5315 7.61982 13.5658 7.48605H13.5951C13.6342 7.61982 13.6734 7.74881 13.7174 7.88257C13.9374 8.5084 14.2504 9.10079 14.6514 9.64062C14.8666 9.93204 15.1062 10.2043 15.3703 10.4671C16.676 11.7426 18.4121 12.4449 20.2558 12.4449C21.4833 12.4449 22.6667 12.1344 23.7035 11.5468C23.7279 11.5324 23.7524 11.5181 23.7768 11.5038H23.7866Z" fill="white"/>
<path d="M26.408 11.2984L30.5305 8.91925V18.1777L26.4177 15.7938L26.408 15.789V11.2984Z" fill="white"/>
<path d="M30.5305 18.5694C30.4571 18.5694 30.3886 18.5503 30.3251 18.5121L26.2269 16.1378C26.0313 16.0374 25.9531 15.8034 26.0509 15.6123C26.1487 15.4164 26.3932 15.34 26.5937 15.4355H26.6035C26.6035 15.4355 26.6182 15.4498 26.628 15.4546L30.1295 17.485V9.61195L26.6182 11.6423C26.4275 11.7522 26.178 11.6901 26.0656 11.5038C25.9531 11.3175 26.0167 11.0738 26.2074 10.9639L30.33 8.58483C30.4571 8.51317 30.6087 8.51317 30.7359 8.58483C30.863 8.65649 30.9413 8.78547 30.9413 8.92879V18.1872C30.9413 18.3306 30.863 18.4595 30.7359 18.5312C30.6723 18.5646 30.6038 18.5837 30.5354 18.5837L30.5305 18.5694Z" fill="white"/>
<path d="M18.9598 30.9331C18.6419 30.9331 18.3387 30.7659 18.1871 30.4697L13.9716 22.3387C13.7564 21.9231 13.9276 21.4119 14.3531 21.2017C14.7785 20.9915 15.3018 21.1587 15.517 21.5744L19.7325 29.7053C19.9476 30.121 19.7765 30.6321 19.351 30.8423C19.2239 30.9045 19.0918 30.9331 18.9598 30.9331Z" fill="white"/>
<path d="M8.2158 30.9331C8.08376 30.9331 7.94683 30.9045 7.81968 30.8376C7.39422 30.6226 7.22795 30.1114 7.44801 29.7006L11.7369 21.5696C11.9569 21.154 12.4802 20.9915 12.9008 21.2065C13.3262 21.4215 13.4925 21.9327 13.2724 22.3435L8.98359 30.4745C8.83198 30.7659 8.52878 30.9331 8.2158 30.9331Z" fill="white"/>
<path d="M16.6663 20.2033V20.6619C16.6663 21.259 16.2506 21.7654 15.6833 21.9135C15.5708 21.9422 15.4583 21.9565 15.3361 21.9565H11.8297C11.7319 21.9565 11.639 21.947 11.546 21.9279C10.9494 21.7989 10.5044 21.2829 10.5044 20.6619V20.2033H16.6663Z" fill="white"/>
<path d="M16.2651 20.2033V20.6619C16.2651 21.1062 15.9326 21.4788 15.4973 21.5505C15.4484 21.56 15.3946 21.5648 15.3408 21.5648H11.8345C11.8051 21.5648 11.7758 21.5648 11.7464 21.5648C11.277 21.5218 10.9151 21.1348 10.9151 20.6667V20.208H10.1082V20.6667C10.1082 21.4406 10.6412 22.0903 11.365 22.2909C11.5166 22.3339 11.6731 22.3578 11.8393 22.3578H15.3457C15.5316 22.3578 15.7076 22.3292 15.8788 22.2766C16.5732 22.0569 17.0769 21.4167 17.0769 20.6667V20.208H16.27L16.2651 20.2033Z" fill="white"/>
<path d="M1.3742 11.628H2.23001V15.469H1.3742C0.875382 15.469 0.469482 15.0724 0.469482 14.5899V12.5118C0.469482 12.0245 0.875382 11.628 1.3742 11.628Z" fill="white"/>
<path d="M1.37409 11.2315C0.655203 11.2315 0.0683594 11.8047 0.0683594 12.507V14.5851C0.0683594 15.2874 0.655203 15.8607 1.37409 15.8607H2.2299V15.0724H1.37409C1.10023 15.0724 0.875269 14.8527 0.875269 14.5851V12.507C0.875269 12.2395 1.10023 12.0197 1.37409 12.0197H2.2299V11.2315H1.37409Z" fill="white"/>
<path d="M26.4078 11.2984H24.9407V15.7938H26.4078V11.2984Z" fill="white"/>
<path d="M26.755 11.0977C26.6865 10.9831 26.5545 10.9066 26.4078 10.9066H24.9407V11.6949H26.0019V15.3973H24.9407V16.1856H26.4078C26.5594 16.1856 26.6865 16.1043 26.7599 15.9897C26.7941 15.9324 26.8137 15.8655 26.8137 15.7938V11.2984C26.8137 11.2219 26.7941 11.155 26.755 11.0977Z" fill="white"/>
<path d="M13.6439 29.4235C13.1647 29.4235 12.7783 29.0461 12.7783 28.5779V21.9565C12.7783 21.4884 13.1647 21.111 13.6439 21.111C14.1232 21.111 14.5095 21.4884 14.5095 21.9565V28.5779C14.5095 29.0461 14.1232 29.4235 13.6439 29.4235Z" fill="white"/>
<path d="M23.7866 11.5038V16.8209C23.7866 18.063 22.7499 19.0758 21.4784 19.0758H5.69228C4.42079 19.0758 3.38403 18.063 3.38403 16.8209V11.5038C3.38403 11.5038 3.43294 11.5324 3.45739 11.5468C4.49415 12.1296 5.67272 12.4449 6.90509 12.4449C8.74876 12.4449 10.4848 11.7426 11.7906 10.4671C12.0546 10.2091 12.2943 9.93204 12.5094 9.64062H14.6563C14.8715 9.93204 15.1111 10.2043 15.3752 10.4671C16.6809 11.7426 18.417 12.4449 20.2607 12.4449C21.4882 12.4449 22.6716 12.1344 23.7084 11.5468C23.7328 11.5324 23.7573 11.5181 23.7817 11.5038H23.7866Z" fill="white"/>
<path d="M6.90513 0.0668793C3.72639 0.0668793 1.14917 2.58452 1.14917 5.68978C1.14917 7.02743 1.62843 8.2552 2.42555 9.22022C2.54781 9.36831 2.67496 9.50686 2.807 9.64062C2.95371 9.78394 3.10531 9.92248 3.2667 10.0467C3.30582 10.0801 3.34494 10.1088 3.38407 10.1375C3.45253 10.19 3.5161 10.2378 3.58946 10.2856C3.70194 10.362 3.81442 10.4337 3.93179 10.5053C4.80227 11.0213 5.81947 11.3175 6.91002 11.3175C8.51405 11.3175 9.96649 10.6773 11.0081 9.6454C11.5167 9.14378 11.9275 8.54661 12.2161 7.88735C12.2747 7.75836 12.3236 7.62459 12.3677 7.49083C12.4117 7.36184 12.4508 7.22808 12.485 7.09431C12.6024 6.64524 12.666 6.17707 12.666 5.69456C12.6611 2.58452 10.0839 0.0668793 6.90513 0.0668793ZM8.08859 7.10864C7.76583 7.36662 7.35015 7.52427 6.90513 7.52427C6.74374 7.52427 6.58725 7.50516 6.43565 7.46694C5.62874 7.26152 5.03212 6.54492 5.03212 5.69456C5.03212 4.68177 5.87326 3.86007 6.90513 3.86007C7.93699 3.86007 8.78302 4.68177 8.78302 5.69456C8.78302 6.26783 8.51405 6.77901 8.09348 7.11342L8.08859 7.10864Z" fill="white"/>
<path d="M20.2655 0.0668793C17.0867 0.0668793 14.5095 2.58452 14.5095 5.68978C14.5095 6.17229 14.5731 6.64047 14.6905 7.08953C14.7247 7.2233 14.7638 7.35229 14.8078 7.48605C14.8518 7.61981 14.9056 7.75358 14.9594 7.88257C15.248 8.54184 15.6588 9.139 16.1674 9.64062C17.209 10.6725 18.6614 11.3175 20.2655 11.3175C21.356 11.3175 22.3732 11.0213 23.2437 10.5053C23.3611 10.4384 23.4736 10.362 23.5811 10.2856C23.6496 10.2378 23.7181 10.19 23.7865 10.1375C23.8257 10.1088 23.8648 10.0754 23.9039 10.0467C24.0653 9.9177 24.2169 9.78394 24.3636 9.64062C24.5005 9.50686 24.6277 9.36831 24.745 9.22022C25.5422 8.2552 26.0214 7.02743 26.0214 5.68978C26.0214 2.58452 23.4442 0.0668793 20.2655 0.0668793ZM20.2655 3.86007C21.3022 3.86007 22.1434 4.68177 22.1434 5.69456C22.1434 6.54492 21.5468 7.26152 20.7398 7.46694C20.5882 7.50516 20.4317 7.52427 20.2704 7.52427C19.8205 7.52427 19.4097 7.37139 19.0869 7.10864C18.6663 6.77423 18.3974 6.26306 18.3974 5.68978C18.3974 4.67699 19.2385 3.85529 20.2704 3.85529L20.2655 3.86007Z" fill="white"/>
<path d="M20.2656 3.07181C18.7838 3.07181 17.5808 4.24703 17.5808 5.69455C17.5808 6.2105 17.7324 6.68824 17.9965 7.09431C18.0894 7.23763 18.1921 7.36661 18.3095 7.49082C18.4562 7.6437 18.6176 7.77746 18.7936 7.88734C19.2142 8.15965 19.7179 8.3173 20.2607 8.3173C20.3928 8.3173 20.5248 8.30775 20.6568 8.28864C20.8671 8.25997 21.0676 8.20264 21.2633 8.12621C21.4149 8.06888 21.5567 7.99722 21.6936 7.91123C22.4467 7.44783 22.9455 6.62613 22.9455 5.69455C22.9455 4.24703 21.7425 3.07181 20.2607 3.07181H20.2656ZM19.0822 7.11342C18.6616 6.77901 18.3926 6.26783 18.3926 5.69455C18.3926 4.68176 19.2338 3.86006 20.2656 3.86006C21.2975 3.86006 22.1435 4.68176 22.1435 5.69455C22.1435 6.54492 21.5469 7.26151 20.74 7.46694C20.5884 7.50516 20.4319 7.52427 20.2705 7.52427C19.8206 7.52427 19.4098 7.37139 19.087 7.10864L19.0822 7.11342Z" fill="white"/>
</g>
<defs>
<clipPath id="clip0_152_367">
<rect width="31" height="31" fill="white"/>
</clipPath>
</defs>
</svg>
