<svg width="43" height="51" viewBox="0 0 43 51" fill="none" xmlns="http://www.w3.org/2000/svg">
<g filter="url(#filter0_d_375_3132)">
<path d="M9.99414 35.5653C9.94869 35.1619 9.76119 34.8494 9.43164 34.6278C9.1021 34.4034 8.68732 34.2912 8.18732 34.2912C7.82937 34.2912 7.51971 34.348 7.25835 34.4616C6.99698 34.5724 6.79386 34.7259 6.64897 34.9219C6.50692 35.1151 6.4359 35.3352 6.4359 35.5824C6.4359 35.7898 6.4842 35.9687 6.58079 36.1193C6.68022 36.2699 6.80948 36.3963 6.96857 36.4986C7.1305 36.598 7.3038 36.6818 7.48846 36.75C7.67312 36.8153 7.85067 36.8693 8.02113 36.9119L8.8734 37.1335C9.15181 37.2017 9.43732 37.294 9.72994 37.4105C10.0225 37.527 10.2939 37.6804 10.5439 37.8707C10.7939 38.0611 10.9956 38.2969 11.149 38.5781C11.3052 38.8594 11.3833 39.196 11.3833 39.5881C11.3833 40.0824 11.2555 40.5213 10.9998 40.9048C10.747 41.2884 10.3791 41.5909 9.89613 41.8125C9.41602 42.0341 8.83505 42.1449 8.15323 42.1449C7.49982 42.1449 6.93448 42.0412 6.45721 41.8338C5.97994 41.6264 5.60636 41.3324 5.33647 40.9517C5.06658 40.5682 4.91744 40.1136 4.88903 39.5881H6.21005C6.23562 39.9034 6.33789 40.1662 6.51687 40.3764C6.69869 40.5838 6.93022 40.7386 7.21147 40.8409C7.49556 40.9403 7.80664 40.9901 8.14471 40.9901C8.51687 40.9901 8.84783 40.9318 9.13761 40.8153C9.43022 40.696 9.66033 40.5312 9.82795 40.321C9.99556 40.108 10.0794 39.8594 10.0794 39.5753C10.0794 39.3168 10.0055 39.1051 9.85778 38.9403C9.71289 38.7756 9.51545 38.6392 9.26545 38.5312C9.01829 38.4233 8.73846 38.3281 8.42596 38.2457L7.39471 37.9645C6.69585 37.7741 6.14187 37.4943 5.73278 37.125C5.32653 36.7557 5.1234 36.267 5.1234 35.6591C5.1234 35.1562 5.25977 34.7173 5.53249 34.3423C5.80522 33.9673 6.17454 33.6761 6.64045 33.4688C7.10636 33.2585 7.63192 33.1534 8.21715 33.1534C8.80806 33.1534 9.32937 33.2571 9.78107 33.4645C10.2356 33.6719 10.5936 33.9574 10.8549 34.321C11.1163 34.6818 11.2527 35.0966 11.264 35.5653H9.99414ZM14.7594 42.1449C14.3446 42.1449 13.9696 42.0682 13.6344 41.9148C13.2992 41.7585 13.0336 41.5327 12.8375 41.2372C12.6444 40.9418 12.5478 40.5795 12.5478 40.1506C12.5478 39.7812 12.6188 39.4773 12.7608 39.2386C12.9029 39 13.0946 38.8111 13.3361 38.6719C13.5776 38.5327 13.8475 38.4276 14.1458 38.3565C14.4441 38.2855 14.748 38.2315 15.0577 38.1946C15.4498 38.1491 15.7679 38.1122 16.0123 38.0838C16.2566 38.0526 16.4341 38.0028 16.5449 37.9347C16.6557 37.8665 16.7111 37.7557 16.7111 37.6023V37.5724C16.7111 37.2003 16.606 36.9119 16.3958 36.7074C16.1884 36.5028 15.8787 36.4006 15.4668 36.4006C15.0378 36.4006 14.6998 36.4957 14.4526 36.6861C14.2083 36.8736 14.0392 37.0824 13.9455 37.3125L12.748 37.0398C12.8901 36.642 13.0975 36.321 13.3702 36.0767C13.6458 35.8295 13.9625 35.6506 14.3205 35.5398C14.6784 35.4261 15.0549 35.3693 15.4498 35.3693C15.7111 35.3693 15.9881 35.4006 16.2807 35.4631C16.5762 35.5227 16.8517 35.6335 17.1074 35.7955C17.3659 35.9574 17.5776 36.1889 17.7424 36.4901C17.9071 36.7884 17.9895 37.1761 17.9895 37.6534V42H16.7452V41.1051H16.6941C16.6117 41.2699 16.4881 41.4318 16.3233 41.5909C16.1586 41.75 15.9469 41.8821 15.6884 41.9872C15.4299 42.0923 15.1202 42.1449 14.7594 42.1449ZM15.0364 41.1222C15.3887 41.1222 15.6898 41.0526 15.9398 40.9134C16.1926 40.7741 16.3844 40.5923 16.5151 40.3679C16.6486 40.1406 16.7154 39.8977 16.7154 39.6392V38.7955C16.6699 38.8409 16.5819 38.8835 16.4512 38.9233C16.3233 38.9602 16.177 38.9929 16.0123 39.0213C15.8475 39.0469 15.687 39.071 15.5307 39.0938C15.3745 39.1136 15.2438 39.1307 15.1387 39.1449C14.8915 39.1761 14.6657 39.2287 14.4611 39.3026C14.2594 39.3764 14.0975 39.483 13.9753 39.6222C13.856 39.7585 13.7963 39.9403 13.7963 40.1676C13.7963 40.483 13.9128 40.7216 14.1458 40.8835C14.3787 41.0426 14.6756 41.1222 15.0364 41.1222ZM25.0517 35.4545L22.6781 42H21.3145L18.9366 35.4545H20.3045L21.9622 40.4915H22.0304L23.6838 35.4545H25.0517ZM28.8475 42.1321C28.2026 42.1321 27.6472 41.9943 27.1813 41.7188C26.7182 41.4403 26.3603 41.0497 26.1074 40.5469C25.8574 40.0412 25.7324 39.4489 25.7324 38.7699C25.7324 38.0994 25.8574 37.5085 26.1074 36.9972C26.3603 36.4858 26.7125 36.0866 27.1642 35.7997C27.6188 35.5128 28.15 35.3693 28.758 35.3693C29.1273 35.3693 29.4853 35.4304 29.8319 35.5526C30.1784 35.6747 30.4895 35.8665 30.7651 36.1278C31.0407 36.3892 31.258 36.7287 31.4171 37.1463C31.5762 37.5611 31.6557 38.0653 31.6557 38.6591V39.1108H26.4526V38.1562H30.4071C30.4071 37.821 30.339 37.5241 30.2026 37.2656C30.0662 37.0043 29.8745 36.7983 29.6273 36.6477C29.383 36.4972 29.0961 36.4219 28.7665 36.4219C28.4086 36.4219 28.0961 36.5099 27.829 36.6861C27.5648 36.8594 27.3603 37.0866 27.2154 37.3679C27.0733 37.6463 27.0023 37.9489 27.0023 38.2756V39.0213C27.0023 39.4588 27.079 39.831 27.2324 40.1378C27.3887 40.4446 27.606 40.679 27.8844 40.8409C28.1628 41 28.4881 41.0795 28.8603 41.0795C29.1017 41.0795 29.3219 41.0455 29.5208 40.9773C29.7196 40.9062 29.8915 40.8011 30.0364 40.6619C30.1813 40.5227 30.2921 40.3509 30.3688 40.1463L31.5748 40.3636C31.4782 40.7187 31.3049 41.0298 31.0549 41.2969C30.8077 41.5611 30.4966 41.767 30.1216 41.9148C29.7495 42.0597 29.3248 42.1321 28.8475 42.1321ZM35.5197 42.1278C34.9913 42.1278 34.5197 41.9929 34.1049 41.723C33.693 41.4503 33.3691 41.0625 33.1333 40.5597C32.9004 40.054 32.7839 39.4474 32.7839 38.7401C32.7839 38.0327 32.9018 37.4276 33.1376 36.9247C33.3762 36.4219 33.7029 36.0369 34.1177 35.7699C34.5325 35.5028 35.0027 35.3693 35.5282 35.3693C35.9345 35.3693 36.2612 35.4375 36.5083 35.5739C36.7583 35.7074 36.9515 35.8636 37.0879 36.0426C37.2271 36.2216 37.335 36.3793 37.4118 36.5156H37.4885V33.2727H38.7626V42H37.5183V40.9815H37.4118C37.335 41.1207 37.2243 41.2798 37.0794 41.4588C36.9373 41.6378 36.7413 41.794 36.4913 41.9276C36.2413 42.0611 35.9174 42.1278 35.5197 42.1278ZM35.801 41.0412C36.1674 41.0412 36.4771 40.9446 36.7299 40.7514C36.9856 40.5554 37.1788 40.2841 37.3095 39.9375C37.443 39.5909 37.5098 39.1875 37.5098 38.7273C37.5098 38.2727 37.4444 37.875 37.3137 37.5341C37.1831 37.1932 36.9913 36.9276 36.7385 36.7372C36.4856 36.5469 36.1731 36.4517 35.801 36.4517C35.4174 36.4517 35.0978 36.5511 34.8422 36.75C34.5865 36.9489 34.3933 37.2202 34.2626 37.5639C34.1348 37.9077 34.0708 38.2955 34.0708 38.7273C34.0708 39.1648 34.1362 39.5582 34.2669 39.9077C34.3975 40.2571 34.5907 40.5341 34.8464 40.7386C35.1049 40.9403 35.4231 41.0412 35.801 41.0412Z" fill="url(#paint0_radial_375_3132)"/>
<path d="M27.5168 0C26.2729 0 25.0649 0.357042 24.0224 1.03045C23.2036 1.55923 22.5145 2.26428 22.0045 3.09135C21.4944 2.26428 20.8054 1.55923 19.9866 1.03045C18.9441 0.357042 17.736 0 16.4922 0C12.9127 0 10 2.9422 10 6.55782C10 8.52832 10.6309 10.5034 11.8792 12.4332C12.8635 13.9608 14.2371 15.4567 15.9508 16.8894C18.8635 19.3164 21.7226 20.6949 21.8434 20.7491C21.8926 20.7717 21.9463 20.7852 22 20.7852C22.0626 20.7852 22.1208 20.7717 22.179 20.7401C22.2103 20.722 25.1544 19.0769 28.0582 16.5414C29.7718 15.0455 31.1409 13.5359 32.1208 12.049C33.3691 10.1644 34 8.31591 34 6.5533C34.0089 2.9422 31.0962 0 27.5168 0Z" fill="url(#paint1_radial_375_3132)"/>
</g>
<defs>
<filter id="filter0_d_375_3132" x="0" y="0" width="44" height="57" filterUnits="userSpaceOnUse" color-interpolation-filters="sRGB">
<feFlood flood-opacity="0" result="BackgroundImageFix"/>
<feColorMatrix in="SourceAlpha" type="matrix" values="0 0 0 0 0 0 0 0 0 0 0 0 0 0 0 0 0 0 127 0" result="hardAlpha"/>
<feOffset dy="4"/>
<feGaussianBlur stdDeviation="2"/>
<feComposite in2="hardAlpha" operator="out"/>
<feColorMatrix type="matrix" values="0 0 0 0 0 0 0 0 0 0 0 0 0 0 0 0 0 0 0.25 0"/>
<feBlend mode="normal" in2="BackgroundImageFix" result="effect1_dropShadow_375_3132"/>
<feBlend mode="normal" in="SourceGraphic" in2="effect1_dropShadow_375_3132" result="shape"/>
</filter>
<radialGradient id="paint0_radial_375_3132" cx="0" cy="0" r="1" gradientUnits="userSpaceOnUse" gradientTransform="translate(4 44.6) rotate(-16.8096) scale(40.2105 37.0681)">
<stop stop-color="#FF4ACC"/>
<stop offset="0.177593" stop-color="#F86B8D"/>
<stop offset="0.716046" stop-color="#FF9C52"/>
<stop offset="1" stop-color="#F7D657"/>
</radialGradient>
<radialGradient id="paint1_radial_375_3132" cx="0" cy="0" r="1" gradientUnits="userSpaceOnUse" gradientTransform="translate(10 16.6282) rotate(-23.1772) scale(27.9145 33.6319)">
<stop stop-color="#FF4ACC"/>
<stop offset="0.177593" stop-color="#F86B8D"/>
<stop offset="0.716046" stop-color="#FF9C52"/>
<stop offset="1" stop-color="#F7D657"/>
</radialGradient>
</defs>
</svg>
