<svg width="31" height="31" viewBox="0 0 31 31" fill="none" xmlns="http://www.w3.org/2000/svg">
<g clip-path="url(#clip0_152_369)">
<path d="M28.1282 7.07974H17.5631L25.0473 1.32234C25.3563 1.08604 25.4108 0.645263 25.1745 0.340807C24.9382 0.0318063 24.4975 -0.0227231 24.1885 0.213571L15.4956 6.90252L6.8072 0.209027C6.4982 -0.0272673 6.06196 0.0272622 5.82112 0.336262C5.58483 0.645263 5.6439 1.0815 5.94836 1.31779L13.4371 7.07974H2.87199C1.32244 7.07974 0.0637207 8.33846 0.0637207 9.88801V28.1281C0.0637207 29.6777 1.32244 30.9364 2.87199 30.9364H28.1282C29.6778 30.9364 30.9365 29.6777 30.9365 28.1281V9.88801C30.9365 8.33846 29.6778 7.07974 28.1282 7.07974ZM23.4296 25.8833C23.266 26.7785 22.5798 27.4419 21.6847 27.5828C20.3487 27.7873 17.4995 28.1281 13.3962 28.1281C9.29283 28.1281 6.43912 27.7873 5.1077 27.5828C4.2125 27.4465 3.53089 26.7785 3.36275 25.8879C3.14009 24.6791 2.87199 22.5025 2.87199 19.0081C2.87199 15.5136 3.14009 13.3415 3.36275 12.1328C3.52634 11.2376 4.2125 10.5742 5.1077 10.4333C6.44367 10.2288 9.29283 9.88801 13.3962 9.88801C17.4995 9.88801 20.3532 10.2288 21.6847 10.4333C22.5798 10.5696 23.2615 11.2376 23.4296 12.1283C23.6523 13.337 23.9204 15.5136 23.9204 19.0081C23.9204 22.5025 23.6523 24.6746 23.4296 25.8833ZM26.7241 26.724C25.9516 26.724 25.32 26.0923 25.32 25.3198C25.32 24.5473 25.9516 23.9157 26.7241 23.9157C27.4966 23.9157 28.1282 24.5473 28.1282 25.3198C28.1282 26.0923 27.4966 26.724 26.7241 26.724ZM26.7241 22.5161C25.9516 22.5161 25.32 21.8845 25.32 21.112C25.32 20.3395 25.9516 19.7079 26.7241 19.7079C27.4966 19.7079 28.1282 20.3395 28.1282 21.112C28.1282 21.8845 27.4966 22.5161 26.7241 22.5161ZM26.7241 18.3083C25.9516 18.3083 25.32 17.6766 25.32 16.9041C25.32 16.1316 25.9516 15.5 26.7241 15.5C27.4966 15.5 28.1282 16.1316 28.1282 16.9041C28.1282 17.6766 27.4966 18.3083 26.7241 18.3083Z" fill="white"/>
</g>
<defs>
<clipPath id="clip0_152_369">
<rect width="31" height="31" fill="white"/>
</clipPath>
</defs>
</svg>
