<svg width="31" height="29" viewBox="0 0 31 29" fill="none" xmlns="http://www.w3.org/2000/svg">
<g clip-path="url(#clip0_152_375)">
<path d="M30.8824 25.376C30.4551 22.2048 29.7304 17.6523 28.7146 13.9608C27.9652 11.2356 25.4567 9.32787 22.6261 9.32787C21.7342 9.32787 20.8609 9.51369 20.0371 9.88531L18.9408 10.3808C18.3771 10.6348 17.7825 10.7586 17.1693 10.7586H16.358C16.4942 9.73047 16.5066 7.78561 15.0758 6.02038C14.6051 5.43816 14.4193 4.85594 14.5122 4.23037C14.729 2.68811 16.519 1.43077 16.5314 1.41838C16.8659 1.18921 16.9464 0.737061 16.7172 0.402595C16.488 0.0681298 16.0359 -0.0123897 15.7014 0.216781C15.6085 0.284913 13.3787 1.83956 13.0629 4.01978C12.9142 5.05414 13.2053 6.03896 13.9362 6.94326C15.1378 8.42977 15.0015 10.0959 14.8776 10.7648H13.8619C13.2425 10.7648 12.6417 10.6348 12.078 10.3808L11.0003 9.89151C10.1703 9.51369 9.29083 9.32787 8.39272 9.32787C5.55596 9.32787 3.05366 11.2294 2.30421 13.9608C1.26985 17.6462 0.545172 22.2048 0.117799 25.376C0.024892 26.0821 0.223094 26.7634 0.687629 27.2899C1.15836 27.8226 1.82729 28.1323 2.53338 28.1323C3.03508 28.1323 3.5182 27.9774 3.93318 27.6739C6.47264 25.8653 8.34317 24.224 9.50142 22.8056C9.93498 22.2729 10.5729 21.9694 11.2543 21.9694C11.3596 21.9694 11.4587 21.9756 11.564 21.9942C14.1282 22.3534 16.8659 22.3473 19.4363 21.988C19.5416 21.9756 19.6407 21.9632 19.746 21.9632C20.4211 21.9632 21.0591 22.2667 21.4926 22.7994C22.6509 24.224 24.5214 25.8653 27.0671 27.6801C27.2776 27.8288 27.5006 27.9403 27.736 28.0208C27.9713 28.1013 28.2191 28.1385 28.4669 28.1385C29.1729 28.1385 29.8419 27.8288 30.3126 27.2961C30.7709 26.7696 30.9753 26.0883 30.8824 25.3822V25.376ZM21.6103 19.015C21.2449 19.015 20.9538 18.7177 20.9538 18.3584V17.8258C20.9538 17.4603 21.2511 17.1692 21.6103 17.1692C21.9695 17.1692 22.2669 17.4665 22.2669 17.8258V18.3584C22.2669 18.7239 21.9695 19.015 21.6103 19.015ZM22.2669 15.0757C22.2669 15.4412 21.9695 15.7323 21.6103 15.7323C21.2511 15.7323 20.9538 15.435 20.9538 15.0757V14.5431C20.9538 14.1776 21.2511 13.8865 21.6103 13.8865C21.9695 13.8865 22.2669 14.1838 22.2669 14.5431V15.0757ZM19.0399 16.4507C19.0399 16.0853 19.3372 15.7942 19.6964 15.7942H20.2291C20.5945 15.7942 20.8856 16.0915 20.8856 16.4507C20.8856 16.81 20.5945 17.1073 20.2291 17.1073H19.6964C19.331 17.1073 19.0399 16.81 19.0399 16.4507ZM22.9791 15.7942H23.5118C23.8772 15.7942 24.1684 16.0915 24.1684 16.4507C24.1684 16.81 23.871 17.1073 23.5118 17.1073H22.9791C22.6137 17.1073 22.3226 16.81 22.3226 16.4507C22.3226 16.0915 22.6199 15.7942 22.9791 15.7942ZM6.93099 17.1073C6.56555 17.1073 6.27444 16.81 6.27444 16.4507C6.27444 16.0915 6.57175 15.7942 6.93099 15.7942H8.04587V14.6793C8.04587 14.3139 8.34317 14.0228 8.70242 14.0228C9.06166 14.0228 9.35896 14.3201 9.35896 14.6793V15.7942H10.4738C10.8393 15.7942 11.1304 16.0915 11.1304 16.4507C11.1304 16.81 10.8393 17.1073 10.4738 17.1073H9.35896V18.2222C9.35896 18.5876 9.06166 18.8787 8.70242 18.8787C8.34317 18.8787 8.04587 18.5814 8.04587 18.2222V17.1073H6.93099Z" fill="white"/>
</g>
<defs>
<clipPath id="clip0_152_375">
<rect width="31" height="28.219" fill="white"/>
</clipPath>
</defs>
</svg>
