<svg width="17" height="17" viewBox="0 0 17 17" fill="none" xmlns="http://www.w3.org/2000/svg">
<g clip-path="url(#clip0_375_3202)">
<path d="M1.58798 0.0111084H15.3901C16.2562 0.0111084 16.9668 0.710651 16.9668 1.58786V9.54932C16.9668 10.4154 16.2562 11.1261 15.3901 11.1261H1.58798C0.721877 11.1261 0.0112305 10.4265 0.0112305 9.54932V1.58786C0.0112305 0.721755 0.721877 0.0111084 1.58798 0.0111084Z" fill="white" fill-opacity="0.6"/>
<path d="M16.4225 15.0346H0.588396C0.277488 15.0346 0.0332031 14.7903 0.0332031 14.4794C0.0332031 14.1685 0.277488 13.9242 0.588396 13.9242H16.4225C16.7334 13.9242 16.9777 14.1685 16.9777 14.4794C16.9777 14.7903 16.7334 15.0346 16.4225 15.0346Z" fill="white" fill-opacity="0.6"/>
<path d="M16.4225 13.0803H0.588396C0.277488 13.0803 0.0332031 12.8361 0.0332031 12.5251C0.0332031 12.2142 0.277488 11.97 0.588396 11.97H16.4225C16.7334 11.97 16.9777 12.2142 16.9777 12.5251C16.9777 12.8361 16.7334 13.0803 16.4225 13.0803Z" fill="white" fill-opacity="0.6"/>
<path d="M16.4225 16.9778H0.588396C0.277488 16.9778 0.0332031 16.7335 0.0332031 16.4226C0.0332031 16.1117 0.277488 15.8674 0.588396 15.8674H16.4225C16.7334 15.8674 16.9777 16.1117 16.9777 16.4226C16.9777 16.7335 16.7334 16.9778 16.4225 16.9778Z" fill="white" fill-opacity="0.6"/>
</g>
<defs>
<clipPath id="clip0_375_3202">
<rect width="17" height="17" fill="white"/>
</clipPath>
</defs>
</svg>
