<svg width="60" height="60" viewBox="0 0 60 60" fill="none" xmlns="http://www.w3.org/2000/svg">
<path d="M0 20C0 8.9543 8.95431 0 20 0H40C51.0457 0 60 8.95431 60 20V40C60 51.0457 51.0457 60 40 60H20C8.9543 60 0 51.0457 0 40V20Z" fill="url(#paint0_radial_235_772)"/>
<path d="M20.2646 20.65C20.1727 20.5253 20.0479 20.4268 19.91 20.3283C19.7656 20.2495 19.6146 20.1576 19.4439 20.1248C19.2797 20.0657 19.1024 20.0657 18.9251 20.0525C18.7479 20.0722 18.5771 20.0788 18.413 20.1445C18.2489 20.1838 18.0913 20.2823 17.9534 20.3677C17.8221 20.4728 17.6973 20.5712 17.6119 20.7026C17.5135 20.8207 17.4609 20.9521 17.415 21.0768C17.3624 21.1884 17.3624 21.3263 17.3559 21.4248C17.3427 21.5299 17.369 21.6021 17.3887 21.6678C17.4215 21.7925 17.4544 21.8713 17.4544 21.8713C17.4544 21.8713 17.5135 21.8188 17.5988 21.7137C17.6382 21.6612 17.6907 21.5955 17.7498 21.5561C17.8155 21.5102 17.8615 21.4642 17.9402 21.4248C18.0125 21.3789 18.0781 21.3395 18.1635 21.3066C18.2357 21.2672 18.3276 21.2541 18.4064 21.2213C18.4984 21.2081 18.5772 21.1819 18.6691 21.1753C18.7544 21.1556 18.8529 21.1622 18.9383 21.149C19.0302 21.1556 19.1221 21.149 19.2141 21.1622C19.306 21.1622 19.3848 21.195 19.4767 21.2016C19.5555 21.2344 19.6474 21.241 19.7196 21.2804C19.805 21.3066 19.8772 21.346 19.9494 21.392C20.0282 21.4248 20.0873 21.4839 20.153 21.5299C20.2186 21.5758 20.2712 21.6284 20.3106 21.6743C20.3959 21.7663 20.4616 21.8253 20.4616 21.8253C20.4616 21.8253 20.4944 21.7531 20.5207 21.6152C20.5338 21.543 20.5535 21.4576 20.5338 21.3592C20.5207 21.2607 20.5207 21.1359 20.4682 21.0243C20.4222 20.8995 20.3565 20.7748 20.258 20.6566L20.2646 20.65Z" fill="white"/>
<path d="M48.8726 28.1156C48.5115 28.4833 48.216 28.654 47.6842 28.6605C47.4215 28.6605 47.1458 28.5489 46.8766 28.4701C46.8569 28.2928 46.8306 28.1221 46.7912 27.9514C47.172 27.9251 47.5923 27.7873 47.8418 27.6756C48.367 27.4524 48.7807 26.9337 48.8595 26.369C48.8858 26.1852 48.6559 25.7321 48.4918 26.0538C48.2423 26.5397 47.9993 26.8155 47.4675 26.9993C47.1917 27.0978 46.8372 27.0519 46.5286 27.0913C46.4563 26.9009 46.371 26.7104 46.2725 26.5266C46.6074 26.3953 46.9422 26.1786 47.1326 26.0473C47.612 25.7058 47.9796 25.0492 47.914 24.4583C47.8877 24.2416 47.6185 23.9593 47.5135 24.3073C47.3559 24.8194 47.2049 25.1609 46.7321 25.4563C46.5154 25.5942 46.2725 25.6861 46.0295 25.7584C45.9508 25.7846 45.8785 25.7978 45.8129 25.8175C44.7951 24.4386 43.1602 23.5325 41.3152 23.5325C38.2292 23.5325 35.7209 26.0341 35.7209 29.1267C35.7209 32.2193 38.2226 34.7209 41.3152 34.7209C44.4077 34.7209 46.7781 32.3375 46.8963 29.3565C47.2114 29.4353 47.5529 29.455 47.8286 29.4485C48.413 29.4353 48.9317 29.0873 49.1747 28.5686C49.2534 28.4045 49.0959 27.8792 48.8661 28.1156H48.8726ZM37.8352 27.8858C37.8352 26.6907 38.8004 25.7255 39.9954 25.7255C41.1904 25.7255 42.1556 26.6907 42.1556 27.8858C42.1556 29.0808 41.1904 30.046 39.9954 30.046C38.8004 30.046 37.8352 29.0808 37.8352 27.8858ZM41.4334 33.086C40.9803 33.086 40.6126 32.7183 40.6126 32.2653C40.6126 31.8122 40.9803 31.4445 41.4334 31.4445C41.8864 31.4445 42.2541 31.8122 42.2541 32.2653C42.2541 32.7183 41.8864 33.086 41.4334 33.086ZM44.5259 31.3526C43.784 31.3526 43.1865 30.7485 43.1865 30.0131C43.1865 29.2777 43.7905 28.6737 44.5259 28.6737C45.2613 28.6737 45.8654 29.2777 45.8654 30.0131C45.8654 30.7485 45.2613 31.3526 44.5259 31.3526Z" fill="white"/>
<path d="M33.7511 36.172C33.738 36.1326 33.7052 36.0932 33.6658 36.0801C33.6001 36.0604 33.5279 36.0998 33.5082 36.1655C33.5082 36.1655 33.4951 36.2049 33.4754 36.2837C33.4557 36.3559 33.4294 36.4806 33.3703 36.5857C33.2784 36.8089 33.0945 37.1372 32.8056 37.4393C32.6678 37.5903 32.4839 37.7347 32.3001 37.8726C32.1031 38.0105 31.893 38.1353 31.6632 38.2403C31.4334 38.3519 31.1838 38.4242 30.9343 38.4898C30.8096 38.5161 30.6783 38.5424 30.5469 38.5555C30.4813 38.5686 30.4156 38.5752 30.35 38.5752H30.1661C30.0217 38.5752 29.8378 38.5752 29.7525 38.5555C29.6474 38.5424 29.5161 38.5227 29.3913 38.4898C29.1418 38.4242 28.8923 38.3519 28.6625 38.2403C28.4327 38.1353 28.216 38.0105 28.0256 37.8726C27.8352 37.7347 27.6579 37.5903 27.52 37.4393C27.2311 37.1372 27.0538 36.8221 26.9554 36.5857C26.9028 36.4675 26.8766 36.369 26.8569 36.2968C26.8372 36.2246 26.8175 36.1655 26.8175 36.1655C26.8043 36.1195 26.7649 36.0867 26.719 36.0735C26.6467 36.0538 26.5745 36.0998 26.5548 36.172C26.5548 36.172 26.5417 36.218 26.522 36.2968C26.5089 36.3756 26.4695 36.5003 26.4695 36.6579C26.4498 36.9731 26.5089 37.4524 26.7649 37.9448C27.0144 38.4439 27.4544 38.9626 28.0519 39.3303C28.3473 39.5207 28.6822 39.6717 29.0368 39.7833C29.214 39.8359 29.3979 39.8818 29.608 39.9081C29.8313 39.9475 29.956 39.9343 30.1267 39.954H30.1793L30.4485 39.9409C30.5469 39.9409 30.6389 39.9278 30.7308 39.9081C30.9212 39.8884 31.1051 39.8359 31.2823 39.7833C31.6369 39.6717 31.9783 39.5207 32.2672 39.3303C32.8647 38.956 33.2981 38.4439 33.5476 37.9448C33.6789 37.7019 33.7511 37.4524 33.7971 37.2357C33.8431 37.0125 33.8496 36.8221 33.8431 36.6513C33.8431 36.4806 33.8037 36.3821 33.7905 36.3033C33.7708 36.2246 33.7577 36.1852 33.7577 36.1852L33.7511 36.172Z" fill="white"/>
<path d="M42.694 20.65C42.6021 20.5253 42.4773 20.4268 42.3395 20.3283C42.195 20.2495 42.044 20.1576 41.8733 20.1248C41.7091 20.0657 41.5318 20.0657 41.3546 20.0525C41.1773 20.0722 41.0066 20.0788 40.8424 20.1445C40.6783 20.1838 40.5207 20.2823 40.3828 20.3677C40.2515 20.4728 40.1267 20.5712 40.0414 20.7026C39.9429 20.8207 39.8903 20.9521 39.8444 21.0768C39.7919 21.1884 39.7919 21.3263 39.7853 21.4248C39.7722 21.5299 39.7984 21.6021 39.8181 21.6678C39.851 21.7925 39.8838 21.8713 39.8838 21.8713C39.8838 21.8713 39.9429 21.8188 40.0282 21.7137C40.0676 21.6612 40.1202 21.5955 40.1793 21.5561C40.2449 21.5102 40.2909 21.4642 40.3697 21.4248C40.4419 21.3789 40.5076 21.3395 40.5929 21.3066C40.6651 21.2672 40.7571 21.2541 40.8358 21.2213C40.9278 21.2081 41.0066 21.1819 41.0985 21.1753C41.1838 21.1556 41.2823 21.1622 41.3677 21.149C41.4596 21.1556 41.5515 21.149 41.6435 21.1622C41.7354 21.1622 41.8142 21.195 41.9061 21.2016C41.9849 21.2344 42.0768 21.241 42.149 21.2804C42.2344 21.3066 42.3066 21.346 42.3789 21.392C42.4577 21.4248 42.5167 21.4839 42.5824 21.5299C42.6481 21.5758 42.7006 21.6284 42.74 21.6743C42.8253 21.7663 42.891 21.8253 42.891 21.8253C42.891 21.8253 42.9238 21.7531 42.9501 21.6152C42.9632 21.543 42.9829 21.4576 42.9632 21.3592C42.9501 21.2607 42.9501 21.1359 42.8976 21.0243C42.8516 20.8995 42.7859 20.7748 42.6875 20.6566L42.694 20.65Z" fill="white"/>
<path d="M18.9645 34.7209C22.0506 34.7209 24.5588 32.2193 24.5588 29.1267C24.5588 26.0341 22.0571 23.5325 18.9645 23.5325C17.1195 23.5325 15.4846 24.432 14.4668 25.8175C14.4274 25.8109 14.388 25.7978 14.3421 25.7846C14.0926 25.719 13.8562 25.6205 13.6264 25.5023C13.1339 25.2462 12.937 24.8785 12.7859 24.3729C12.7072 24.1103 12.4117 24.0643 12.3789 24.3861C12.3132 25.0098 12.6349 25.5877 13.088 25.9947C13.2718 26.1589 13.6461 26.4018 14.0138 26.5332C13.9153 26.717 13.8365 26.9009 13.7577 27.0978C13.4819 27.065 13.1602 27.0978 12.9173 27.0322C12.3723 26.8943 12.0703 26.5988 11.8207 26.1129C11.6369 25.7518 11.394 26.1129 11.4334 26.3756C11.5187 26.9665 11.9521 27.4064 12.4708 27.6756C12.7006 27.7938 13.1274 27.9251 13.5082 27.9448C13.4688 28.1156 13.4425 28.2928 13.4228 28.4636C13.1865 28.5292 12.9435 28.6277 12.7269 28.654C12.1556 28.7065 11.7945 28.503 11.4137 28.109C11.1773 27.8661 11.0525 28.4176 11.1248 28.5752C11.3677 29.0873 11.8142 29.3368 12.3526 29.4288C12.6349 29.4813 13.0355 29.455 13.39 29.3565C13.5148 32.3375 15.9573 34.7144 18.9711 34.7144L18.9645 34.7209ZM22.1687 28.6671C22.9107 28.6671 23.5082 29.2712 23.5082 30.0066C23.5082 30.742 22.9041 31.346 22.1687 31.346C21.4334 31.346 20.8293 30.742 20.8293 30.0066C20.8293 29.2712 21.4334 28.6671 22.1687 28.6671ZM19.0762 33.086C18.6231 33.086 18.2554 32.7183 18.2554 32.2653C18.2554 31.8122 18.6231 31.4445 19.0762 31.4445C19.5292 31.4445 19.8969 31.8122 19.8969 32.2653C19.8969 32.7183 19.5292 33.086 19.0762 33.086ZM17.6382 25.7255C18.8332 25.7255 19.7984 26.6907 19.7984 27.8858C19.7984 29.0808 18.8332 30.046 17.6382 30.046C16.4432 30.046 15.478 29.0808 15.478 27.8858C15.478 26.6907 16.4432 25.7255 17.6382 25.7255Z" fill="white"/>
<path d="M13.9481 35.6271C12.4576 35.6271 11.2495 36.5988 11.2495 37.7938C11.2495 38.9888 12.4642 39.954 13.9547 39.954C15.4452 39.954 16.6533 38.9823 16.6533 37.7873C16.6533 36.5923 15.4386 35.6271 13.9481 35.6271Z" fill="white"/>
<path d="M46.8372 35.6664C45.373 35.4432 43.9547 36.218 43.6789 37.3933C43.4032 38.5686 44.3683 39.698 45.8326 39.9212C47.2968 40.1445 48.715 39.3697 48.9908 38.1944C49.2666 37.019 48.3014 35.8897 46.8372 35.6664Z" fill="white"/>
<defs>
<radialGradient id="paint0_radial_235_772" cx="0" cy="0" r="1" gradientUnits="userSpaceOnUse" gradientTransform="translate(-5.5 69.5) rotate(-38.9515) scale(107.371)">
<stop offset="0.01" stop-color="#121523"/>
<stop offset="0.07" stop-color="#171A2B"/>
<stop offset="0.23" stop-color="#21253A"/>
<stop offset="0.4" stop-color="#282B44"/>
<stop offset="0.65" stop-color="#2A2E47"/>
<stop offset="1" stop-color="#4B4C79"/>
</radialGradient>
</defs>
</svg>
