<svg width="60" height="60" viewBox="0 0 60 60" fill="none" xmlns="http://www.w3.org/2000/svg">
<path d="M0 20C0 8.9543 8.95431 0 20 0H40C51.0457 0 60 8.95431 60 20V40C60 51.0457 51.0457 60 40 60H20C8.9543 60 0 51.0457 0 40V20Z" fill="url(#paint0_radial_235_770)"/>
<path d="M40.8402 20.7672C40.7307 20.6059 40.5925 20.4676 40.4369 20.3639C40.3563 20.3121 40.2698 20.266 40.1834 20.2257C40.0048 20.1508 39.8089 20.1104 39.6015 20.1104C39.5093 20.1104 39.4229 20.1162 39.3365 20.1335C39.1636 20.1623 38.9965 20.2257 38.841 20.3178C38.7661 20.3639 38.6912 20.4158 38.622 20.4734L33.6902 24.7023H29.6226C29.3057 24.7023 29.0119 24.8003 28.7699 24.9616C28.6893 25.0192 28.6144 25.0768 28.5452 25.146C28.2687 25.4225 28.0958 25.8028 28.0958 26.2291V30.821C28.0958 31.2416 28.2687 31.6276 28.5452 31.9042C28.6144 31.9733 28.6893 32.0367 28.7699 32.0885C29.0119 32.2556 29.3057 32.3478 29.6226 32.3478H33.6902L38.622 36.5767C38.7373 36.6747 38.864 36.7496 39.0023 36.8072C39.1924 36.8878 39.3941 36.9397 39.6015 36.9397C39.9702 36.9397 40.2986 36.8014 40.5637 36.5825C40.8921 36.3059 41.1052 35.9026 41.1052 35.4417V21.6084C41.1052 21.2973 41.0131 21.0092 40.846 20.773L40.8402 20.7672Z" fill="white"/>
<path d="M29.6226 23.5443H33.2639L37.4121 19.9894V15.7029C37.4121 15.363 37.1356 15.0807 36.7899 15.0807H17.5639C16.1926 15.0807 15.0807 16.1926 15.0807 17.5639V42.3728C15.0807 43.744 16.1926 44.856 17.5639 44.856H36.7899C37.0204 44.856 37.2278 44.7292 37.3372 44.5276C37.4467 44.3259 37.4352 44.0839 37.3084 43.8938C36.692 42.972 36.692 41.7793 37.3084 40.8575C37.3718 40.7596 37.4121 40.6386 37.4121 40.5118V37.0549L33.2639 33.5001H29.6226C28.1419 33.5001 26.9378 32.2959 26.9378 30.8153V26.2234C26.9378 24.7427 28.1419 23.5385 29.6226 23.5385V23.5443ZM35.822 41.1341C35.5569 41.9407 35.5397 42.8106 35.8047 43.6172H17.5639C16.8782 43.6172 16.3251 43.0584 16.3251 42.3785C16.3251 41.6987 16.884 41.1398 17.5639 41.1398H35.822V41.1341Z" fill="white"/>
<path d="M44.4642 25.7394C44.395 25.5377 44.1819 25.4283 43.9802 25.4974C43.7786 25.5665 43.6691 25.7797 43.7382 25.9814C44.0148 26.811 44.1531 27.6637 44.1531 28.5222C44.1531 29.3806 44.0148 30.2333 43.7382 31.063C43.6691 31.2646 43.7786 31.4778 43.9802 31.547C44.0205 31.5585 44.0609 31.5642 44.1012 31.5642C44.2625 31.5642 44.4123 31.4605 44.4642 31.305C44.7695 30.4004 44.9193 29.4613 44.9193 28.5222C44.9193 27.5831 44.7638 26.6497 44.4642 25.7394Z" fill="white"/>
<path d="M42.5053 25.9814C42.3036 26.0505 42.1942 26.2637 42.2633 26.4653C42.488 27.1337 42.5975 27.825 42.5975 28.5222C42.5975 29.2193 42.4822 29.9049 42.2633 30.579C42.1942 30.7807 42.3036 30.9939 42.5053 31.063C42.5456 31.0745 42.5859 31.0803 42.6263 31.0803C42.7876 31.0803 42.9374 30.9766 42.9892 30.821C43.237 30.072 43.3637 29.3 43.3637 28.5222C43.3637 27.7444 43.237 26.9723 42.9892 26.2234C42.9201 26.0217 42.7069 25.9122 42.5053 25.9814Z" fill="white"/>
<defs>
<radialGradient id="paint0_radial_235_770" cx="0" cy="0" r="1" gradientUnits="userSpaceOnUse" gradientTransform="translate(-5.5 69.5) rotate(-38.9515) scale(107.371)">
<stop offset="0.01" stop-color="#121523"/>
<stop offset="0.07" stop-color="#171A2B"/>
<stop offset="0.23" stop-color="#21253A"/>
<stop offset="0.4" stop-color="#282B44"/>
<stop offset="0.65" stop-color="#2A2E47"/>
<stop offset="1" stop-color="#4B4C79"/>
</radialGradient>
</defs>
</svg>
