<svg width="60" height="60" viewBox="0 0 60 60" fill="none" xmlns="http://www.w3.org/2000/svg">
<path d="M0 20C0 8.9543 8.95431 0 20 0H40C51.0457 0 60 8.95431 60 20V40C60 51.0457 51.0457 60 40 60H20C8.9543 60 0 51.0457 0 40V20Z" fill="url(#paint0_radial_235_745)"/>
<path d="M37.7867 26.5038V28.1185H17.3841V26.5038C17.3841 26.5038 17.433 26.5324 17.4575 26.5468C18.4942 27.1296 19.6728 27.4449 20.9052 27.4449C22.7489 27.4449 24.4849 26.7426 25.7907 25.4671C26.0547 25.2091 26.2944 24.932 26.5095 24.6406C26.9106 24.1008 27.2235 23.5084 27.4436 22.8826C27.4876 22.7536 27.5316 22.6198 27.5659 22.4861H27.5952C27.6343 22.6198 27.6734 22.7488 27.7175 22.8826C27.9375 23.5084 28.2505 24.1008 28.6515 24.6406C28.8667 24.932 29.1063 25.2043 29.3704 25.4671C30.6761 26.7426 32.4122 27.4449 34.2559 27.4449C35.4834 27.4449 36.6668 27.1344 37.7036 26.5468C37.728 26.5324 37.7525 26.5181 37.7769 26.5038H37.7867Z" fill="white"/>
<path d="M40.408 26.2984L44.5305 23.9192V33.1777L40.4177 30.7938L40.408 30.789V26.2984Z" fill="white"/>
<path d="M44.5305 33.5694C44.4572 33.5694 44.3887 33.5503 44.3251 33.5121L40.227 31.1378C40.0314 31.0374 39.9531 30.8034 40.051 30.6123C40.1488 30.4164 40.3933 30.34 40.5938 30.4355H40.6036C40.6036 30.4355 40.6182 30.4498 40.628 30.4546L44.1295 32.485V24.612L40.6182 26.6423C40.4275 26.7522 40.1781 26.6901 40.0656 26.5038C39.9531 26.3175 40.0167 26.0738 40.2074 25.9639L44.33 23.5848C44.4572 23.5132 44.6088 23.5132 44.7359 23.5848C44.8631 23.6565 44.9413 23.7855 44.9413 23.9288V33.1872C44.9413 33.3306 44.8631 33.4595 44.7359 33.5312C44.6723 33.5646 44.6039 33.5838 44.5354 33.5838L44.5305 33.5694Z" fill="white"/>
<path d="M32.9599 45.9331C32.6421 45.9331 32.3389 45.7659 32.1873 45.4697L27.9718 37.3387C27.7566 36.9231 27.9277 36.4119 28.3532 36.2017C28.7787 35.9915 29.3019 36.1587 29.5171 36.5744L33.7326 44.7053C33.9478 45.121 33.7766 45.6321 33.3512 45.8424C33.224 45.9045 33.092 45.9331 32.9599 45.9331Z" fill="white"/>
<path d="M22.2158 45.9331C22.0838 45.9331 21.9468 45.9045 21.8197 45.8376C21.3942 45.6226 21.228 45.1114 21.448 44.7006L25.7369 36.5696C25.9569 36.154 26.4802 35.9915 26.9008 36.2065C27.3262 36.4215 27.4925 36.9327 27.2724 37.3435L22.9836 45.4745C22.832 45.7659 22.5288 45.9331 22.2158 45.9331Z" fill="white"/>
<path d="M30.6664 35.2033V35.6619C30.6664 36.2591 30.2507 36.7654 29.6834 36.9135C29.5709 36.9422 29.4584 36.9565 29.3362 36.9565H25.8298C25.732 36.9565 25.6391 36.947 25.5461 36.9279C24.9495 36.7989 24.5045 36.2829 24.5045 35.6619V35.2033H30.6664Z" fill="white"/>
<path d="M30.2653 35.2033V35.6619C30.2653 36.1062 29.9328 36.4788 29.4976 36.5505C29.4487 36.56 29.3949 36.5648 29.3411 36.5648H25.8347C25.8053 36.5648 25.776 36.5648 25.7466 36.5648C25.2772 36.5218 24.9153 36.1348 24.9153 35.6667V35.208H24.1084V35.6667C24.1084 36.4406 24.6414 37.0903 25.3652 37.291C25.5168 37.334 25.6733 37.3578 25.8396 37.3578H29.346C29.5318 37.3578 29.7078 37.3292 29.879 37.2766C30.5734 37.0569 31.0771 36.4167 31.0771 35.6667V35.208H30.2702L30.2653 35.2033Z" fill="white"/>
<path d="M15.3742 26.628H16.23V30.4689H15.3742C14.8754 30.4689 14.4695 30.0724 14.4695 29.5899V27.5118C14.4695 27.0245 14.8754 26.628 15.3742 26.628Z" fill="white"/>
<path d="M15.3742 26.2315C14.6553 26.2315 14.0685 26.8047 14.0685 27.507V29.5851C14.0685 30.2874 14.6553 30.8607 15.3742 30.8607H16.23V30.0724H15.3742C15.1003 30.0724 14.8754 29.8527 14.8754 29.5851V27.507C14.8754 27.2395 15.1003 27.0197 15.3742 27.0197H16.23V26.2315H15.3742Z" fill="white"/>
<path d="M40.408 26.2984H38.9408V30.7938H40.408V26.2984Z" fill="white"/>
<path d="M40.7552 26.0977C40.6867 25.983 40.5547 25.9066 40.408 25.9066H38.9408V26.6949H40.002V30.3973H38.9408V31.1855H40.408C40.5596 31.1855 40.6867 31.1043 40.7601 30.9897C40.7943 30.9323 40.8139 30.8655 40.8139 30.7938V26.2984C40.8139 26.2219 40.7943 26.155 40.7552 26.0977Z" fill="white"/>
<path d="M27.6441 44.4235C27.1649 44.4235 26.7785 44.0461 26.7785 43.5779V36.9565C26.7785 36.4884 27.1649 36.111 27.6441 36.111C28.1234 36.111 28.5097 36.4884 28.5097 36.9565V43.5779C28.5097 44.0461 28.1234 44.4235 27.6441 44.4235Z" fill="white"/>
<path d="M37.7867 26.5038V31.8209C37.7867 33.063 36.75 34.0758 35.4785 34.0758H19.6924C18.4209 34.0758 17.3841 33.063 17.3841 31.8209V26.5038C17.3841 26.5038 17.433 26.5324 17.4575 26.5468C18.4942 27.1296 19.6728 27.4449 20.9052 27.4449C22.7489 27.4449 24.4849 26.7426 25.7907 25.4671C26.0547 25.2091 26.2944 24.932 26.5095 24.6406H28.6564C28.8716 24.932 29.1112 25.2043 29.3753 25.4671C30.681 26.7426 32.4171 27.4449 34.2608 27.4449C35.4882 27.4449 36.6717 27.1344 37.7085 26.5468C37.7329 26.5324 37.7574 26.5181 37.7818 26.5038L37.7867 26.5038Z" fill="white"/>
<path d="M20.9052 15.0669C17.7265 15.0669 15.1492 17.5845 15.1492 20.6898C15.1492 22.0274 15.6285 23.2552 16.4256 24.2202C16.5479 24.3683 16.675 24.5069 16.8071 24.6406C16.9538 24.7839 17.1054 24.9225 17.2668 25.0467C17.3059 25.0801 17.345 25.1088 17.3841 25.1375C17.4526 25.19 17.5162 25.2378 17.5895 25.2856C17.702 25.362 17.8145 25.4337 17.9319 25.5053C18.8023 26.0213 19.8195 26.3175 20.9101 26.3175C22.5141 26.3175 23.9666 25.6773 25.0082 24.6454C25.5168 24.1438 25.9276 23.5466 26.2161 22.8873C26.2748 22.7584 26.3237 22.6246 26.3677 22.4908C26.4117 22.3618 26.4509 22.2281 26.4851 22.0943C26.6025 21.6452 26.666 21.1771 26.666 20.6946C26.6611 17.5845 24.0839 15.0669 20.9052 15.0669ZM22.0887 22.1086C21.7659 22.3666 21.3502 22.5243 20.9052 22.5243C20.7438 22.5243 20.5873 22.5052 20.4357 22.4669C19.6288 22.2615 19.0322 21.5449 19.0322 20.6946C19.0322 19.6818 19.8733 18.8601 20.9052 18.8601C21.9371 18.8601 22.7831 19.6818 22.7831 20.6946C22.7831 21.2678 22.5141 21.779 22.0935 22.1134L22.0887 22.1086Z" fill="white"/>
<path d="M34.2657 15.0669C31.0869 15.0669 28.5097 17.5845 28.5097 20.6898C28.5097 21.1723 28.5733 21.6405 28.6906 22.0895C28.7249 22.2233 28.764 22.3523 28.808 22.4861C28.852 22.6198 28.9058 22.7536 28.9596 22.8826C29.2481 23.5418 29.6589 24.139 30.1675 24.6406C31.2092 25.6725 32.6616 26.3175 34.2657 26.3175C35.3562 26.3175 36.3734 26.0213 37.2439 25.5053C37.3613 25.4384 37.4737 25.362 37.5813 25.2856C37.6498 25.2378 37.7183 25.19 37.7867 25.1375C37.8258 25.1088 37.865 25.0754 37.9041 25.0467C38.0655 24.9177 38.2171 24.7839 38.3638 24.6406C38.5007 24.5069 38.6279 24.3683 38.7452 24.2202C39.5424 23.2552 40.0216 22.0274 40.0216 20.6898C40.0216 17.5845 37.4444 15.0669 34.2657 15.0669ZM34.2657 18.8601C35.3024 18.8601 36.1436 19.6818 36.1436 20.6946C36.1436 21.5449 35.5469 22.2615 34.74 22.4669C34.5884 22.5052 34.4319 22.5243 34.2705 22.5243C33.8206 22.5243 33.4098 22.3714 33.0871 22.1086C32.6665 21.7742 32.3975 21.2631 32.3975 20.6898C32.3975 19.677 33.2387 18.8553 34.2705 18.8553L34.2657 18.8601Z" fill="white"/>
<path d="M34.2657 18.0718C32.7839 18.0718 31.5808 19.247 31.5808 20.6946C31.5808 21.2105 31.7324 21.6882 31.9965 22.0943C32.0894 22.2376 32.1921 22.3666 32.3095 22.4908C32.4562 22.6437 32.6176 22.7775 32.7937 22.8873C33.2142 23.1597 33.7179 23.3173 34.2608 23.3173C34.3928 23.3173 34.5248 23.3078 34.6569 23.2886C34.8672 23.26 35.0677 23.2027 35.2633 23.1262C35.4149 23.0689 35.5567 22.9972 35.6936 22.9112C36.4468 22.4478 36.9456 21.6261 36.9456 20.6946C36.9456 19.247 35.7425 18.0718 34.2608 18.0718H34.2657ZM33.0822 22.1134C32.6616 21.779 32.3927 21.2678 32.3927 20.6946C32.3927 19.6818 33.2338 18.8601 34.2657 18.8601C35.2975 18.8601 36.1436 19.6818 36.1436 20.6946C36.1436 21.5449 35.5469 22.2615 34.74 22.4669C34.5884 22.5052 34.4319 22.5243 34.2705 22.5243C33.8206 22.5243 33.4098 22.3714 33.0871 22.1086L33.0822 22.1134Z" fill="white"/>
<defs>
<radialGradient id="paint0_radial_235_745" cx="0" cy="0" r="1" gradientUnits="userSpaceOnUse" gradientTransform="translate(3 56.5) rotate(-40.3937) scale(74.8415)">
<stop stop-color="#FF8B48"/>
<stop offset="0.41" stop-color="#FF4ACC"/>
<stop offset="0.55" stop-color="#FE4CC9"/>
<stop offset="0.65" stop-color="#FE55C2"/>
<stop offset="0.73" stop-color="#FD64B5"/>
<stop offset="0.81" stop-color="#FC7AA3"/>
<stop offset="0.88" stop-color="#FA958C"/>
<stop offset="0.95" stop-color="#F8B770"/>
<stop offset="1" stop-color="#F7D657"/>
</radialGradient>
</defs>
</svg>
