<svg width="43" height="50" viewBox="0 0 43 50" fill="none" xmlns="http://www.w3.org/2000/svg">
<g filter="url(#filter0_d_375_3094)">
<path d="M4.21662 41V32.2727H9.62855V33.4062H5.53338V36.0653H9.24077V37.1946H5.53338V41H4.21662ZM11.1456 41V34.4545H12.4197V41H11.1456ZM11.7891 33.4446C11.5675 33.4446 11.3771 33.3707 11.218 33.223C11.0618 33.0724 10.9837 32.8935 10.9837 32.6861C10.9837 32.4759 11.0618 32.2969 11.218 32.1491C11.3771 31.9986 11.5675 31.9233 11.7891 31.9233C12.0107 31.9233 12.1996 31.9986 12.3558 32.1491C12.5149 32.2969 12.5945 32.4759 12.5945 32.6861C12.5945 32.8935 12.5149 33.0724 12.3558 33.223C12.1996 33.3707 12.0107 33.4446 11.7891 33.4446ZM15.408 32.2727V41H14.1339V32.2727H15.408ZM20.1776 34.4545V35.4773H16.6023V34.4545H20.1776ZM17.5611 32.8864H18.8352V39.0781C18.8352 39.3253 18.8722 39.5114 18.946 39.6364C19.0199 39.7585 19.1151 39.8423 19.2315 39.8878C19.3509 39.9304 19.4801 39.9517 19.6193 39.9517C19.7216 39.9517 19.8111 39.9446 19.8878 39.9304C19.9645 39.9162 20.0241 39.9048 20.0668 39.8963L20.2969 40.9489C20.223 40.9773 20.1179 41.0057 19.9815 41.0341C19.8452 41.0653 19.6747 41.0824 19.4702 41.0852C19.1349 41.0909 18.8224 41.0312 18.5327 40.9062C18.2429 40.7812 18.0085 40.5881 17.8295 40.3267C17.6506 40.0653 17.5611 39.7372 17.5611 39.3423V32.8864ZM24.3377 41.1321C23.6928 41.1321 23.1374 40.9943 22.6715 40.7188C22.2085 40.4403 21.8505 40.0497 21.5977 39.5469C21.3477 39.0412 21.2227 38.4489 21.2227 37.7699C21.2227 37.0994 21.3477 36.5085 21.5977 35.9972C21.8505 35.4858 22.2028 35.0866 22.6545 34.7997C23.109 34.5128 23.6403 34.3693 24.2482 34.3693C24.6175 34.3693 24.9755 34.4304 25.3221 34.5526C25.6687 34.6747 25.9798 34.8665 26.2553 35.1278C26.5309 35.3892 26.7482 35.7287 26.9073 36.1463C27.0664 36.5611 27.146 37.0653 27.146 37.6591V38.1108H21.9428V37.1562H25.8974C25.8974 36.821 25.8292 36.5241 25.6928 36.2656C25.5565 36.0043 25.3647 35.7983 25.1175 35.6477C24.8732 35.4972 24.5863 35.4219 24.2567 35.4219C23.8988 35.4219 23.5863 35.5099 23.3192 35.6861C23.055 35.8594 22.8505 36.0866 22.7056 36.3679C22.5636 36.6463 22.4925 36.9489 22.4925 37.2756V38.0213C22.4925 38.4588 22.5692 38.831 22.7227 39.1378C22.8789 39.4446 23.0962 39.679 23.3746 39.8409C23.6531 40 23.9783 40.0795 24.3505 40.0795C24.592 40.0795 24.8121 40.0455 25.011 39.9773C25.2099 39.9062 25.3817 39.8011 25.5266 39.6619C25.6715 39.5227 25.7823 39.3509 25.859 39.1463L27.065 39.3636C26.9684 39.7187 26.7951 40.0298 26.5451 40.2969C26.2979 40.5611 25.9869 40.767 25.6119 40.9148C25.2397 41.0597 24.815 41.1321 24.3377 41.1321ZM28.5597 41V34.4545H29.7912V35.4943H29.8594C29.9787 35.142 30.1889 34.8651 30.4901 34.6634C30.794 34.4588 31.1378 34.3565 31.5213 34.3565C31.6009 34.3565 31.6946 34.3594 31.8026 34.3651C31.9134 34.3707 32 34.3778 32.0625 34.3864V35.6051C32.0114 35.5909 31.9205 35.5753 31.7898 35.5582C31.6591 35.5384 31.5284 35.5284 31.3977 35.5284C31.0966 35.5284 30.8281 35.5923 30.5923 35.7202C30.3594 35.8452 30.1747 36.0199 30.0384 36.2443C29.902 36.4659 29.8338 36.7187 29.8338 37.0028V41H28.5597ZM38.07 36.0526L36.9151 36.2571C36.8668 36.1094 36.7901 35.9687 36.685 35.8352C36.5827 35.7017 36.4435 35.5923 36.2674 35.5071C36.0913 35.4219 35.8711 35.3793 35.6069 35.3793C35.2461 35.3793 34.945 35.4602 34.7035 35.6222C34.462 35.7812 34.3413 35.9872 34.3413 36.2401C34.3413 36.4588 34.4222 36.6349 34.5842 36.7685C34.7461 36.902 35.0075 37.0114 35.3683 37.0966L36.408 37.3352C37.0103 37.4744 37.4592 37.6889 37.7546 37.9787C38.0501 38.2685 38.1978 38.6449 38.1978 39.108C38.1978 39.5 38.0842 39.8494 37.8569 40.1562C37.6325 40.4602 37.3185 40.6989 36.9151 40.8722C36.5146 41.0455 36.0501 41.1321 35.5217 41.1321C34.7887 41.1321 34.1907 40.9759 33.7276 40.6634C33.2646 40.348 32.9805 39.9006 32.8754 39.321L34.1069 39.1335C34.1836 39.4545 34.3413 39.6974 34.5799 39.8622C34.8185 40.0241 35.1296 40.1051 35.5131 40.1051C35.9308 40.1051 36.2646 40.0185 36.5146 39.8452C36.7646 39.669 36.8896 39.4545 36.8896 39.2017C36.8896 38.9972 36.8129 38.8253 36.6594 38.6861C36.5089 38.5469 36.2773 38.4418 35.9648 38.3707L34.8569 38.1278C34.2461 37.9886 33.7944 37.767 33.5018 37.4631C33.212 37.1591 33.0671 36.7741 33.0671 36.3082C33.0671 35.9219 33.1751 35.5838 33.391 35.294C33.6069 35.0043 33.9052 34.7784 34.2859 34.6165C34.6665 34.4517 35.1026 34.3693 35.5941 34.3693C36.3015 34.3693 36.8583 34.5227 37.2646 34.8295C37.6708 35.1335 37.9393 35.5412 38.07 36.0526Z" fill="url(#paint0_radial_375_3094)"/>
<g clip-path="url(#clip0_375_3094)">
<path d="M9.75466 3.30554H12.4749C12.7989 4.35251 13.7838 5.11662 14.9478 5.11662C16.1117 5.11662 17.0966 4.35251 17.4207 3.30554H32.2453C32.6632 3.30554 33 2.97203 33 2.55831C33 2.14459 32.6632 1.81108 32.2453 1.81108H17.4207C17.0966 0.764116 16.1117 0 14.9478 0C13.7838 0 12.7989 0.764116 12.4749 1.81108H9.75466C9.33683 1.81108 9 2.14459 9 2.55831C9 2.97203 9.33683 3.30554 9.75466 3.30554Z" fill="url(#paint1_radial_375_3094)"/>
<path d="M32.2453 8.85277H29.5251C29.2011 7.8058 28.2162 7.04169 27.0522 7.04169C25.8883 7.04169 24.9034 7.8058 24.5793 8.85277H9.75466C9.33683 8.85277 9 9.18628 9 9.6C9 10.0137 9.33683 10.3472 9.75466 10.3472H24.5793C24.9034 11.3942 25.8883 12.1583 27.0522 12.1583C28.2162 12.1583 29.2011 11.3942 29.5251 10.3472H32.2453C32.6632 10.3472 33 10.0137 33 9.6C33 9.18628 32.6632 8.85277 32.2453 8.85277Z" fill="url(#paint2_radial_375_3094)"/>
<path d="M32.2453 15.8945H21.9401C21.6161 14.8475 20.6312 14.0834 19.4672 14.0834C18.3033 14.0834 17.3184 14.8475 16.9943 15.8945H9.75466C9.33683 15.8945 9 16.228 9 16.6417C9 17.0554 9.33683 17.3889 9.75466 17.3889H16.9943C17.3184 18.4359 18.3033 19.2 19.4672 19.2C20.6312 19.2 21.6161 18.4359 21.9401 17.3889H32.2496C32.6674 17.3889 33.0043 17.0554 33.0043 16.6417C33.0043 16.228 32.6674 15.8945 32.2496 15.8945H32.2453Z" fill="url(#paint3_radial_375_3094)"/>
</g>
</g>
<defs>
<filter id="filter0_d_375_3094" x="-1" y="0" width="44" height="56" filterUnits="userSpaceOnUse" color-interpolation-filters="sRGB">
<feFlood flood-opacity="0" result="BackgroundImageFix"/>
<feColorMatrix in="SourceAlpha" type="matrix" values="0 0 0 0 0 0 0 0 0 0 0 0 0 0 0 0 0 0 127 0" result="hardAlpha"/>
<feOffset dy="4"/>
<feGaussianBlur stdDeviation="2"/>
<feComposite in2="hardAlpha" operator="out"/>
<feColorMatrix type="matrix" values="0 0 0 0 0 0 0 0 0 0 0 0 0 0 0 0 0 0 0.25 0"/>
<feBlend mode="normal" in2="BackgroundImageFix" result="effect1_dropShadow_375_3094"/>
<feBlend mode="normal" in="SourceGraphic" in2="effect1_dropShadow_375_3094" result="shape"/>
</filter>
<radialGradient id="paint0_radial_375_3094" cx="0" cy="0" r="1" gradientUnits="userSpaceOnUse" gradientTransform="translate(3 43.6) rotate(-16.8096) scale(40.2105 37.0681)">
<stop stop-color="#FF4ACC"/>
<stop offset="0.177593" stop-color="#F86B8D"/>
<stop offset="0.716046" stop-color="#FF9C52"/>
<stop offset="1" stop-color="#F7D657"/>
</radialGradient>
<radialGradient id="paint1_radial_375_3094" cx="0" cy="0" r="1" gradientUnits="userSpaceOnUse" gradientTransform="translate(9 4.0933) rotate(-6.01626) scale(25.8037 8.95628)">
<stop stop-color="#FF4ACC"/>
<stop offset="0.177593" stop-color="#F86B8D"/>
<stop offset="0.716046" stop-color="#FF9C52"/>
<stop offset="1" stop-color="#F7D657"/>
</radialGradient>
<radialGradient id="paint2_radial_375_3094" cx="0" cy="0" r="1" gradientUnits="userSpaceOnUse" gradientTransform="translate(9 11.135) rotate(-6.01626) scale(25.8037 8.95628)">
<stop stop-color="#FF4ACC"/>
<stop offset="0.177593" stop-color="#F86B8D"/>
<stop offset="0.716046" stop-color="#FF9C52"/>
<stop offset="1" stop-color="#F7D657"/>
</radialGradient>
<radialGradient id="paint3_radial_375_3094" cx="0" cy="0" r="1" gradientUnits="userSpaceOnUse" gradientTransform="translate(9 18.1767) rotate(-6.0152) scale(25.8082 8.95629)">
<stop stop-color="#FF4ACC"/>
<stop offset="0.177593" stop-color="#F86B8D"/>
<stop offset="0.716046" stop-color="#FF9C52"/>
<stop offset="1" stop-color="#F7D657"/>
</radialGradient>
<clipPath id="clip0_375_3094">
<rect width="24" height="19.2" fill="white" transform="translate(9)"/>
</clipPath>
</defs>
</svg>
