<svg width="60" height="60" viewBox="0 0 60 60" fill="none" xmlns="http://www.w3.org/2000/svg">
<path d="M0 20C0 8.9543 8.95431 0 20 0H40C51.0457 0 60 8.95431 60 20V40C60 51.0457 51.0457 60 40 60H20C8.9543 60 0 51.0457 0 40V20Z" fill="url(#paint0_radial_235_775)"/>
<path d="M27.6786 27.5311C28.0227 27.5311 28.3232 27.7878 28.345 28.132C28.3669 28.5089 28.0719 28.8203 27.7004 28.8203H25.0129C24.7343 28.8203 24.5267 29.0715 24.5813 29.3447C25.1167 32.1251 27.5639 34.2227 30.4973 34.2227C33.4361 34.2227 35.8833 32.1251 36.4187 29.3447C36.4733 29.0715 36.2657 28.8203 35.9871 28.8203H33.2122C32.8407 28.8203 32.5457 28.5089 32.5676 28.132C32.5894 27.7878 32.8899 27.5256 33.2395 27.5256H36.0855C36.3313 27.5256 36.5279 27.329 36.5279 27.0832V26.5369C36.5279 26.2911 36.3313 26.0944 36.0855 26.0944H33.234C32.8899 26.0944 32.5894 25.8377 32.5676 25.4936C32.5457 25.1167 32.8407 24.8053 33.2122 24.8053H36.0855C36.3313 24.8053 36.5279 24.6086 36.5279 24.3628V23.8111C36.5279 23.5653 36.3313 23.3686 36.0855 23.3686H33.234C32.8899 23.3686 32.5894 23.1119 32.5676 22.7678C32.5457 22.3908 32.8407 22.0795 33.2122 22.0795H36.0855C36.3313 22.0795 36.5279 21.8828 36.5279 21.637V21.0853C36.5279 20.8395 36.3313 20.6428 36.0855 20.6428H33.234C32.8899 20.6428 32.5894 20.3861 32.5676 20.0419C32.5457 19.665 32.8407 19.3537 33.2122 19.3537H35.6485C35.9653 19.3537 36.1783 19.0314 36.0527 18.7364C35.135 16.5951 32.9937 15.0765 30.4973 15.0765C28.0009 15.0765 25.8541 16.5951 24.9419 18.7637C24.8217 19.0532 25.0347 19.37 25.3515 19.37H27.6786C28.0227 19.37 28.3232 19.6268 28.345 19.9709C28.3669 20.3478 28.0719 20.6592 27.7004 20.6592H24.9145C24.6687 20.6592 24.4721 20.8559 24.4721 21.1017V21.6534C24.4721 21.8992 24.6687 22.0959 24.9145 22.0959H27.6786C28.0227 22.0959 28.3232 22.3526 28.345 22.6967C28.3669 23.0737 28.0719 23.385 27.7004 23.385H24.9145C24.6687 23.385 24.4721 23.5817 24.4721 23.8275V24.3792C24.4721 24.625 24.6687 24.8217 24.9145 24.8217H27.6786C28.0227 24.8217 28.3232 25.0784 28.345 25.4226C28.3669 25.7995 28.0719 26.1108 27.7004 26.1108H24.9145C24.6687 26.1108 24.4721 26.3075 24.4721 26.5533V27.542C24.4721 27.542 24.4775 27.542 24.483 27.542H27.6786V27.5311Z" fill="white"/>
<path d="M38.7293 25.6957C38.194 25.6957 37.7625 26.1272 37.7625 26.6626V28.7001C37.7625 32.4365 34.7253 35.4737 30.9889 35.4737H30.0056C26.2693 35.4737 23.2321 32.4365 23.2321 28.7001V26.6626C23.2321 26.1272 22.8005 25.6957 22.2652 25.6957C21.7299 25.6957 21.2983 26.1272 21.2983 26.6626V28.7001C21.2983 33.1302 24.625 36.8011 28.9131 37.3364V41.3732H26.9685C25.7503 41.3732 24.7561 42.3674 24.7561 43.5855V44.2574C24.7561 44.5087 24.9582 44.7108 25.2095 44.7108H35.785C36.0363 44.7108 36.2384 44.5087 36.2384 44.2574V43.5855C36.2384 42.3674 35.2442 41.3732 34.0261 41.3732H32.0814V37.3364C36.3695 36.8011 39.6962 33.1302 39.6962 28.7001V26.6626C39.6962 26.1272 39.2647 25.6957 38.7293 25.6957Z" fill="white"/>
<path d="M38.713 24.6523C38.1831 24.6523 37.757 24.2263 37.757 23.6964V19.7852C37.757 19.2553 38.1831 18.8293 38.713 18.8293C39.2428 18.8293 39.6689 19.2553 39.6689 19.7852V23.6964C39.6689 24.2263 39.2428 24.6523 38.713 24.6523Z" fill="white"/>
<path d="M44.9621 24.6523C44.4322 24.6523 44.0062 24.2263 44.0062 23.6964V19.7852C44.0062 19.2553 44.4322 18.8293 44.9621 18.8293C45.492 18.8293 45.9181 19.2553 45.9181 19.7852V23.6964C45.9181 24.2263 45.492 24.6523 44.9621 24.6523Z" fill="white"/>
<path d="M41.8375 26.7882C41.3077 26.7882 40.8816 26.3621 40.8816 25.8322V17.6493C40.8816 17.1195 41.3077 16.6934 41.8375 16.6934C42.3674 16.6934 42.7935 17.1195 42.7935 17.6493V25.8322C42.7935 26.3621 42.3674 26.7882 41.8375 26.7882Z" fill="white"/>
<path d="M16.0379 24.6523C15.508 24.6523 15.0819 24.2263 15.0819 23.6964V19.7852C15.0819 19.2553 15.508 18.8293 16.0379 18.8293C16.5678 18.8293 16.9938 19.2553 16.9938 19.7852V23.6964C16.9938 24.2263 16.5678 24.6523 16.0379 24.6523Z" fill="white"/>
<path d="M22.287 24.6523C21.7572 24.6523 21.3311 24.2263 21.3311 23.6964V19.7852C21.3311 19.2553 21.7572 18.8293 22.287 18.8293C22.8169 18.8293 23.243 19.2553 23.243 19.7852V23.6964C23.243 24.2263 22.8169 24.6523 22.287 24.6523Z" fill="white"/>
<path d="M19.1625 26.7882C18.6326 26.7882 18.2065 26.3621 18.2065 25.8322V17.6493C18.2065 17.1195 18.6326 16.6934 19.1625 16.6934C19.6923 16.6934 20.1184 17.1195 20.1184 17.6493V25.8322C20.1184 26.3621 19.6923 26.7882 19.1625 26.7882Z" fill="white"/>
<defs>
<radialGradient id="paint0_radial_235_775" cx="0" cy="0" r="1" gradientUnits="userSpaceOnUse" gradientTransform="translate(-5.5 69.5) rotate(-38.9515) scale(107.371)">
<stop offset="0.01" stop-color="#121523"/>
<stop offset="0.07" stop-color="#171A2B"/>
<stop offset="0.23" stop-color="#21253A"/>
<stop offset="0.4" stop-color="#282B44"/>
<stop offset="0.65" stop-color="#2A2E47"/>
<stop offset="1" stop-color="#4B4C79"/>
</radialGradient>
</defs>
</svg>
