<svg width="17" height="17" viewBox="0 0 17 17" fill="none" xmlns="http://www.w3.org/2000/svg">
<g opacity="0.6">
<path d="M6.27368 0H1.57675C0.705934 0 0 0.705934 0 1.57675V6.27368C0 7.14449 0.705934 7.85042 1.57675 7.85042H6.27368C7.14449 7.85042 7.85042 7.14449 7.85042 6.27368V1.57675C7.85042 0.705934 7.14449 0 6.27368 0Z" fill="white"/>
<path d="M15.3899 0H10.693C9.82214 0 9.11621 0.705934 9.11621 1.57675V6.27368C9.11621 7.14449 9.82214 7.85042 10.693 7.85042H15.3899C16.2607 7.85042 16.9666 7.14449 16.9666 6.27368V1.57675C16.9666 0.705934 16.2607 0 15.3899 0Z" fill="white"/>
<path d="M6.27368 9.11623H1.57675C0.705934 9.11623 0 9.82216 0 10.693V15.3899C0 16.2607 0.705934 16.9667 1.57675 16.9667H6.27368C7.14449 16.9667 7.85042 16.2607 7.85042 15.3899V10.693C7.85042 9.82216 7.14449 9.11623 6.27368 9.11623Z" fill="white"/>
<path d="M15.3899 9.11623H10.693C9.82214 9.11623 9.11621 9.82216 9.11621 10.693V15.3899C9.11621 16.2607 9.82214 16.9667 10.693 16.9667H15.3899C16.2607 16.9667 16.9666 16.2607 16.9666 15.3899V10.693C16.9666 9.82216 16.2607 9.11623 15.3899 9.11623Z" fill="white"/>
</g>
</svg>
