<svg width="60" height="60" viewBox="0 0 60 60" fill="none" xmlns="http://www.w3.org/2000/svg">
<path d="M0 20C0 8.9543 8.95431 0 20 0H40C51.0457 0 60 8.95431 60 20V40C60 51.0457 51.0457 60 40 60H20C8.9543 60 0 51.0457 0 40V20Z" fill="url(#paint0_radial_235_748)"/>
<path d="M42.3344 20.0585V19.0034C42.3344 18.7116 42.1323 18.4535 41.8461 18.3805C41.6329 18.33 36.6046 17.0786 33.9895 17.0786C31.8794 17.0786 30.1959 17.8698 29.4944 18.2571C28.7985 17.8698 27.115 17.0786 25.0049 17.0786C22.3898 17.0786 17.3615 18.33 17.1483 18.3805C16.8621 18.4535 16.66 18.706 16.66 19.0034V20.0585C14.8811 20.384 14.0954 20.8441 14.0954 21.5737V42.1131C14.0954 42.2927 14.1684 42.4611 14.303 42.5845C14.4377 42.708 14.6117 42.7641 14.7913 42.7529C14.8586 42.7473 21.8005 42.1805 26.4808 41.681C27.0139 41.6249 27.5807 41.8045 28.0016 42.1917C28.1756 42.3432 28.4281 42.5453 28.6245 42.6238C28.9164 42.7417 29.298 42.7585 29.5 42.7585C29.702 42.7585 30.0836 42.7417 30.3755 42.6294C30.5775 42.5509 30.83 42.3545 31.0152 42.1861C31.4249 41.8101 31.9636 41.6305 32.5248 41.6866C37.1995 42.1805 44.1414 42.7529 44.2087 42.7585C44.3883 42.7697 44.5623 42.7136 44.697 42.5901C44.826 42.4667 44.9046 42.2983 44.9046 42.1188V21.5737C44.9046 20.8441 44.1189 20.384 42.34 20.0585H42.3344ZM41.0492 19.5085V38.7292C39.4835 38.3644 36.0154 37.618 33.9895 37.618C32.3789 37.618 31.0096 38.0838 30.1398 38.4766V19.3682C30.7346 19.0427 32.1937 18.3581 33.9895 18.3581C35.9985 18.3581 39.7192 19.1942 41.0492 19.5085ZM17.9451 19.5085C19.2752 19.1942 22.9958 18.3581 25.0049 18.3581C26.7895 18.3581 28.2598 19.0427 28.8546 19.3682V38.4766C27.9848 38.0838 26.6155 37.618 25.0049 37.618C22.979 37.618 19.5052 38.3644 17.9451 38.7292V19.5085Z" fill="white"/>
<defs>
<radialGradient id="paint0_radial_235_748" cx="0" cy="0" r="1" gradientUnits="userSpaceOnUse" gradientTransform="translate(3 56.5) rotate(-40.3937) scale(74.8415)">
<stop stop-color="#FF8B48"/>
<stop offset="0.41" stop-color="#FF4ACC"/>
<stop offset="0.55" stop-color="#FE4CC9"/>
<stop offset="0.65" stop-color="#FE55C2"/>
<stop offset="0.73" stop-color="#FD64B5"/>
<stop offset="0.81" stop-color="#FC7AA3"/>
<stop offset="0.88" stop-color="#FA958C"/>
<stop offset="0.95" stop-color="#F8B770"/>
<stop offset="1" stop-color="#F7D657"/>
</radialGradient>
</defs>
</svg>
